<?xml version="1.0" encoding="UTF-8"?>
<!DOCTYPE svg PUBLIC "-//W3C//DTD SVG 1.1//EN" "http://www.w3.org/Graphics/SVG/1.1/DTD/svg11.dtd">
<svg version="1.1" xmlns="http://www.w3.org/2000/svg" xmlns:xlink="http://www.w3.org/1999/xlink" x="0" y="0" width="1163" height="1003" viewBox="0, 0, 1163, 1003">
  <defs>
    <clipPath id="Clip_1">
      <path d="M0,0.08 L1162.97,0.08 L1162.97,1002.94 L0,1002.94 z"/>
    </clipPath>
  </defs>
  <g id="Layer_1">
    <path d="M572.793,873.621 C421.547,875.024 300.093,919.932 300.093,947.971 C300.093,974.011 404.768,995.524 540.768,999.042 C891.999,965.724 582.514,876.401 572.793,873.621" fill="#FFFFFE"/>
    <g clip-path="url(#Clip_1)">
      <path d="M859.883,947.971 C859.883,919.491 734.572,873.556 579.988,873.556 C577.578,873.556 575.195,873.602 572.793,873.621 C582.514,876.401 891.999,965.724 540.768,999.042 C553.592,999.374 566.677,999.556 579.988,999.556 C734.572,999.556 859.883,976.464 859.883,947.971" fill="#BEE2E2"/>
      <path d="M579.988,876.997 C423.054,876.997 303.535,924.303 303.535,947.971 C303.535,970.744 417.073,996.114 579.988,996.114 C742.903,996.114 856.441,970.744 856.441,947.971 C856.441,924.303 736.923,876.997 579.988,876.997 z M579.988,1003 C442.631,1003 296.652,983.711 296.652,947.971 C296.652,913.979 434.047,870.115 579.988,870.115 C725.93,870.115 863.325,913.979 863.325,947.971 C863.325,983.711 717.345,1003 579.988,1003" fill="#ABD4D2"/>
    </g>
    <path d="M530.91,779.531 C530.91,779.531 560.053,827.79 543.104,852.166 C526.151,876.536 488.793,895.387 474.391,920.873 L685.592,920.873 C671.183,895.387 633.831,876.536 616.884,852.166 C599.93,827.79 629.072,779.531 629.072,779.531 L530.91,779.531" fill="#FFFFFE"/>
    <path d="M530.91,779.531 C530.91,779.531 560.053,827.789 543.104,852.166 C526.151,876.536 495.716,903.141 474.391,920.873 C474.391,920.873 533.164,862.413 535.015,843.711 C536.858,825.011 530.91,779.531 530.91,779.531" fill="#ABD4D2"/>
    <g>
      <path d="M629.072,779.531 C629.072,779.531 599.93,827.79 616.884,852.166 C633.831,876.536 666.689,898.556 685.592,920.873 C685.592,920.873 635.494,862.693 627.734,843.855 C619.975,825.011 629.072,779.531 629.072,779.531" fill="#ABD4D2"/>
      <path d="M71.107,411.48 C34.16,425.844 14.754,441.051 7.176,456.103 C6.89,460.882 7.169,465.533 8.107,469.922 C15.747,505.727 43.429,500.533 81.101,489.48 C133.562,474.091 193.918,459.415 252.405,463.583 C344.054,470.116 254.574,530.843 303.236,556.544 C373.483,593.649 445.119,510.961 500.131,491.012 C586.43,459.74 642.053,509.375 716.091,531.714 C775.065,549.519 841.272,557.791 848.987,497.415 C851.766,475.571 850.637,460.741 882.597,453.013 C911.96,445.896 957.401,449.597 986.311,455.649 C1031.43,465.078 1061.99,493.61 1110.57,495.298 C1129.75,495.961 1146.18,494.025 1156.66,485.571 C1165.62,462.559 1154.05,437.454 1098.71,414.35 L71.107,411.48" fill="#FFFFFE"/>
      <path d="M7.173,459.421 C6.76,459.421 6.341,459.344 5.936,459.182 C4.238,458.499 3.41,456.572 4.088,454.87 C4.4,454.09 12.03,435.578 39.095,422.681 C40.76,421.883 42.737,422.597 43.526,424.253 C44.318,425.909 43.614,427.896 41.958,428.682 C17.4,440.382 10.328,457.175 10.26,457.344 C9.734,458.636 8.487,459.421 7.173,459.421" fill="#ABD4D2"/>
      <path d="M1156.66,488.896 C1156.26,488.896 1155.85,488.824 1155.45,488.668 C1153.74,487.999 1152.89,486.071 1153.56,484.356 C1166.63,450.974 1128.73,433.221 1127.12,432.481 C1125.45,431.721 1124.71,429.746 1125.47,428.078 C1126.23,426.403 1128.21,425.688 1129.87,426.429 C1130.32,426.636 1175.13,447.506 1159.76,486.786 C1159.24,488.097 1157.99,488.896 1156.66,488.896" fill="#ABD4D2"/>
      <path d="M930.116,708.285 C965.96,648.102 1006.06,586.493 1076.39,552.012 C1105.52,537.726 1144.22,513.986 1155.86,487.285 C1148.82,498.143 1099.91,506.09 1065.56,494.974 C1029.41,483.273 935.389,452.928 901.636,458.629 C867.883,464.338 849.662,534.85 843.364,565.064 C837.221,594.525 837.728,658.064 762.261,737.725 C780.415,685.051 773.039,598.908 756.156,574.87 C739.286,550.844 607.494,489.597 550.82,488.804 C494.157,488.013 413.002,556.986 413.002,556.986 C385.534,583.466 348.846,662.972 376.223,738.635 C393.898,787.479 348.846,662.972 308.301,584.103 C301.729,571.323 294.898,559.013 290.587,550.61 C271.548,513.494 338.496,469.714 252.405,463.583 C193.918,459.415 133.562,474.091 81.101,489.48 C43.429,500.533 15.747,505.727 8.107,469.922 C7.169,465.533 6.89,460.882 7.176,456.103 C-12.262,494.727 46.153,532.337 86.289,552.012 C156.607,586.493 204.016,643.33 232.548,708.285 C232.548,708.285 242.249,813.582 560.091,813.582 C846.038,813.582 875.727,799.608 930.116,708.285" fill="#FFFFFE"/>
      <path d="M1156.66,485.571 C1156.43,486.142 1156.12,486.714 1155.86,487.285 C1156.24,486.714 1156.52,486.142 1156.66,485.571" fill="#FFFFFE"/>
      <path d="M128.282,283.026 C128.282,283.026 99.984,209.351 132.76,112.378 C165.532,15.398 217.243,-12.667 220.146,5.08 C223.048,22.833 159.932,133.689 159.932,133.689 L177.292,221.975 L209.029,262.137 L128.282,283.026" fill="#A0BD5D"/>
      <path d="M186.341,186.033 C186.341,186.033 216.756,22.495 220.146,5.08 C223.003,-9.622 144.98,57.469 136.795,156.001 C128.61,254.52 141.48,341.39 141.48,341.39 L200.263,425.682 L205.516,292.378 L186.341,186.033" fill="#C3D986"/>
      <path d="M340.041,1.846 C365.054,-9.959 286.366,158.547 302.717,231.818 C319.08,305.078 347.482,366.169 347.482,366.169 L424.184,428.09 L353.093,530.48 L199.788,505.61 L140.032,261.896 C140.032,261.896 158.714,87.405 340.041,1.846" fill="#D3E189"/>
    </g>
    <path d="M279.632,194.702 C276.438,194.702 273.789,192.17 273.671,188.943 C271.009,115.872 300.411,69.288 301.665,67.339 C303.444,64.566 307.152,63.761 309.911,65.547 C312.691,67.326 313.496,71.021 311.717,73.8 C311.431,74.248 283.093,119.385 285.606,188.515 C285.729,191.806 283.151,194.579 279.853,194.696 L279.632,194.702" fill="#FFFFFE"/>
    <path d="M285.528,239.539 C282.587,239.539 280.022,237.365 279.613,234.371 L277.197,216.579 C276.756,213.307 279.048,210.3 282.314,209.852 C285.587,209.443 288.593,211.702 289.042,214.968 L291.457,232.76 C291.898,236.034 289.606,239.04 286.34,239.488 C286.067,239.52 285.794,239.539 285.528,239.539" fill="#FFFFFE"/>
    <path d="M883.493,630.765 L806.545,306.91 L326.456,306.91 L249.509,630.765 C247.756,634.558 246.756,638.428 246.756,642.363 C246.756,691.843 389.911,731.965 566.494,731.965 C743.092,731.965 886.246,691.843 886.246,642.363 C886.246,638.428 885.233,634.558 883.493,630.765" fill="#F5DFA2"/>
    <path d="M806.545,306.91 C806.545,348.403 699.079,382.038 566.494,382.038 C433.924,382.038 326.456,348.403 326.456,306.91 C326.456,265.423 433.924,231.793 566.494,231.793 C699.079,231.793 806.545,265.423 806.545,306.91" fill="#81322E"/>
    <path d="M554.767,377.273 L554.677,377.273 C553.066,377.273 551.742,375.994 551.69,374.377 C551.638,372.727 552.937,371.351 554.586,371.299 C556.014,371.254 698.169,366.553 748.364,343.728 C748.758,343.55 749.174,343.466 749.584,343.466 C750.72,343.466 751.817,344.112 752.318,345.215 C753,346.715 752.338,348.488 750.831,349.168 C699.553,372.487 560.657,377.084 554.767,377.273" fill="#DBB58D"/>
    <path d="M757.623,346.948 C756.415,346.948 755.272,346.208 754.824,345.006 C754.247,343.461 755.033,341.741 756.578,341.163 C756.67,341.131 765.28,337.87 769.182,333.105 C769.772,332.386 770.629,332.015 771.494,332.015 C772.161,332.015 772.833,332.236 773.39,332.689 C774.662,333.734 774.85,335.617 773.805,336.896 C768.871,342.916 759.078,346.604 758.663,346.76 C758.324,346.89 757.967,346.948 757.623,346.948" fill="#DBB58D"/>
    <path d="M631.741,194.456 C631.741,194.456 681.169,218.638 686.676,256.974 C692.182,295.3 673.312,346.611 608.442,338.949 C608.442,338.949 586.027,368.195 554.183,362.118 C522.338,356.052 508.352,330.104 508.352,330.104 C508.352,330.104 455.703,336.585 447.443,292.358 C439.196,248.131 458.729,233.975 458.729,233.975 C458.729,233.975 455.105,219.819 475.157,203.306 C495.209,186.793 508.352,185.02 508.352,185.02 C508.352,185.02 532.144,167.332 558.793,166.741 C585.442,166.151 631.741,194.456 631.741,194.456" fill="#FDE8DA"/>
    <path d="M634.391,202.721 C634.391,202.721 663.949,226.092 663.326,266.599 C662.702,307.098 616.169,332.461 616.169,332.461 C616.169,332.461 636.755,318.903 634.976,277.027 C633.222,235.15 634.391,202.721 634.391,202.721" fill="#F8D4C1"/>
    <path d="M631.741,183.846 C622.234,192.592 613.131,200.079 604.442,206.487 C604.261,206.546 547.079,226.287 528.833,212.741 C510.546,199.183 521.157,188.56 521.157,188.56 C521.157,188.56 485.768,193.897 488.131,203.026 C490.118,210.676 530.196,232.598 566.729,229.105 C503.521,257.831 471.027,223.949 471.027,223.949 C471.027,223.949 455.105,271.13 528.833,254.611 C566.273,246.222 592.196,228.118 608.676,212.312 C609.157,211.903 609.56,211.507 609.87,211.157 C625,196.338 631.741,183.846 631.741,183.846" fill="#F8D4C1"/>
    <path d="M610.481,241.338 C608.793,243.507 607.001,245.703 605.118,247.929 L610.481,241.338 z M580.728,312.084 C566.494,309.461 622.923,245.767 621.702,223.949 C619.156,229.28 615.273,235.163 610.481,241.332 C610.352,241.475 545.897,309.156 516.742,303.559 C487.547,297.962 486.365,287.637 486.365,287.637 C486.365,287.637 468.677,324.495 501.105,323.611 C512.937,323.286 525.858,318.183 537.508,311.825 C525.742,321.52 517.625,327.74 517.625,327.74 C517.625,327.74 494.041,334.819 545.937,338.351 C597.832,341.903 624.364,253.442 624.364,253.442 C624.364,253.442 590.001,313.8 580.728,312.084" fill="#F8D4C1"/>
    <path d="M631.741,183.846 C631.741,183.846 616.403,230.13 561.858,251.961 C507.313,273.78 483.716,270.033 473.392,266.599 C463.066,263.156 471.027,223.949 471.027,223.949 C471.027,223.949 469.508,262.287 503.469,254.91 C606.676,232.494 631.741,183.846 631.741,183.846" fill="#FFFFFE"/>
    <path d="M584.857,220.982 C584.857,220.982 559.793,240.754 519.689,233.384 C479.586,226.007 471.625,200.65 499.677,193.663 C492.261,202.721 498.157,233.384 584.857,220.982" fill="#FFFFFE"/>
    <path d="M631.741,199.476 C631.741,199.476 638.885,243.703 627.13,271.13 C615.365,298.552 580.43,348.975 554.78,348.091 C529.119,347.208 512.754,332.461 512.754,332.461 C512.754,332.461 557.768,353.838 600.053,296.779 C642.351,239.728 631.741,199.476 631.741,199.476" fill="#FFFFFE"/>
    <path d="M634.391,202.721 C634.391,202.721 669.779,223.792 671.546,256.091 C673.312,288.377 664.014,327.74 616.169,336.143 C631.741,321.623 684.377,267.591 634.391,202.721" fill="#FFFFFE"/>
    <path d="M588.443,127.599 C567.702,102.703 534.17,92.664 503.911,115.183 C457.274,111.671 430.703,162.442 444.249,206.722 C449.833,224.949 461.119,239.819 475.495,250.15 C570.638,256.858 587.754,180.241 588.443,127.599" fill="#AD3434"/>
    <g>
      <path d="M604.598,157.638 C601.131,146.352 595.534,136.112 588.443,127.599 C587.754,180.241 570.638,256.858 475.495,250.15 C496.027,264.91 522.923,270.326 548.962,262.351 C593.235,248.793 618.144,201.911 604.598,157.638" fill="#812E2D"/>
      <path d="M508.872,139.819 C507.469,139.819 506.222,138.832 505.943,137.41 C499.943,107.047 487.456,43.865 556.111,12.982 C584.709,0.125 609.819,-1.446 630.773,8.352 C662.773,23.301 673.137,59.014 673.565,60.527 C674.014,62.119 673.085,63.768 671.5,64.216 C669.891,64.632 668.26,63.728 667.812,62.151 C667.715,61.808 657.715,27.502 628.202,13.742 C608.91,4.762 585.481,6.333 558.566,18.43 C494.235,47.365 505.664,105.19 511.8,136.254 C512.119,137.872 511.066,139.443 509.449,139.761 C509.255,139.8 509.06,139.819 508.872,139.819" fill="#282417"/>
    </g>
    <path d="M1046.67,245.832 C1044.19,222.222 1036.82,211.15 1028.65,206.449 C1020.04,205.585 1010.45,206.105 1000.18,207.923 C971.414,212.988 937.194,228.131 903.52,251.287 C826.806,304.04 780.053,390.571 780.053,390.571 L840.506,453.545 L894.921,451.507 C894.947,451.493 1057.67,350.552 1046.67,245.832" fill="#F2D9A3"/>
    <path d="M1000.18,207.923 L1000.18,207.923" fill="#F7E0AA"/>
    <path d="M1071.15,242.338 C1066.58,220.079 1050.84,208.669 1028.65,206.449 C1036.82,211.15 1044.19,222.222 1046.67,245.832 C1057.67,350.552 894.947,451.493 894.921,451.507 L961.454,449.013 C986.285,448.078 1082.43,297.377 1071.15,242.338" fill="#D5A972"/>
    <path d="M1112.67,415.415 C1084.99,480.103 950.129,557.896 950.129,557.896 L955.376,589.805 C979.661,595.142 1140.05,449.09 1142.95,392.974 C1144.78,357.189 1112.93,340.565 1066.95,341.436 C1100.22,349.623 1140.35,350.727 1112.67,415.415" fill="#D5A972"/>
    <path d="M823.975,463.453 L866.701,539.596 L950.129,557.896 C950.129,557.896 1084.99,480.103 1112.67,415.415 C1140.35,350.727 1100.22,349.623 1066.95,341.436 C1040.82,341.935 1010.13,348.065 978.428,359.591 C890.935,391.422 823.975,463.453 823.975,463.453" fill="#F7E0AA"/>
    <path d="M968.597,465.051 C966.882,466.116 961.882,467.708 960.193,465.811 C955.116,460.142 970.713,452.52 974.557,451.61 C984.272,449.331 983.357,454.106 978.773,458.882 C974.595,463.235 967.366,467.588 962.362,466.598 L968.597,465.051" fill="#14110F"/>
    <path d="M910.221,359.117 C908.831,360.571 904.389,363.376 902.272,361.961 C895.935,357.753 909.117,346.455 912.61,344.61 C929.492,335.734 915.246,361.559 904.571,362.182" fill="#14110F"/>
    <path d="M888.975,345.793 C887.598,347.247 883.156,350.053 881.026,348.636 C874.701,344.429 887.883,333.13 891.376,331.292 C908.26,322.415 894.013,348.233 883.338,348.857" fill="#14110F"/>
    <path d="M953.324,454.532 C951.636,455.597 946.623,457.194 944.921,455.291 C939.844,449.623 955.454,442 959.285,441.091 C977.856,436.734 957.597,458.156 947.103,456.078" fill="#14110F"/>
    <path d="M99.659,204.618 C87.211,248.624 78.36,291.871 76.169,334.214 C73.99,376.449 79.737,417.402 96.903,452.844 C105.208,470.753 116.857,486.461 130.656,503.111 C144.169,519.435 158.646,534.85 174.386,548.935 C190.087,563.064 207.139,575.739 225.73,586.493 C244.366,597.128 264.405,606.22 286.834,610.83 C275.646,613.928 263.775,614.304 252.042,613.719 C240.25,613.155 228.529,611.051 217.016,608.051 C193.997,601.934 172.048,591.635 151.938,578.758 C131.824,565.83 113.497,550.311 97.061,533.234 C92.987,529.09 88.806,524.467 85.019,520.064 L79.211,513.22 C77.234,510.798 75.299,508.337 73.419,505.83 C65.945,495.759 59.461,484.895 53.887,473.604 C48.448,462.24 44.085,450.383 40.731,438.325 C37.578,426.214 35.328,413.929 34.244,401.637 C32.11,377.027 33.903,352.579 38.874,329.241 C43.828,305.89 51.633,283.54 61.783,262.579 C66.915,252.118 72.474,241.93 78.822,232.241 C85.121,222.547 91.818,213.118 99.659,204.618" fill="#812E2D"/>
    <path d="M99.659,204.618 L241.042,355.949 L227.094,439.584 L288.827,425.65 L356.534,493.351 L274.521,599.395 C274.521,599.395 195.935,576.635 171.344,565.038 C131.614,546.298 76.435,505.557 61.825,427.637 C37.932,300.195 99.659,204.618 99.659,204.618" fill="#F8F5C4"/>
    <path d="M245.522,585.947 C245.522,585.947 120.071,541.142 99.163,457.507 C78.253,373.876 106.63,421.662 114.097,436.598 C121.565,451.532 147.441,535.414 286.834,561.421" fill="#F7E0AA"/>
    <path d="M581.936,534.681 C673.312,467.961 755.221,490.122 791.312,532.506 C796.857,539.025 801.468,546.038 805.182,553.467 C805.195,553.766 810.688,663.116 700.234,728.407 C597.248,789.29 553.209,724.816 535.015,718.661 C495.846,659.947 541.079,564.506 581.936,534.681" fill="#C2D987"/>
    <path d="M621.962,579.818 C665.507,548.038 704.533,558.583 721.715,578.779 C724.364,581.882 727.286,584.948 728.325,588.765 C728.364,588.909 730.961,641.005 678.326,672.116 C629.26,701.122 608.273,670.402 599.599,667.473 C580.948,639.493 602.495,594.025 621.962,579.818" fill="#F8EFC0"/>
    <path d="M700.234,728.407 C810.688,663.116 805.195,553.766 805.182,553.467 C830.922,605.065 812.233,676.278 749.845,735.31 C678.494,802.83 597.599,786.641 543.755,729.647 C540.469,726.167 537.559,722.486 535.015,718.661 C553.209,724.816 597.248,789.29 700.234,728.407" fill="#A2BD61"/>
    <path d="M741.325,571.324 C749.416,571.356 733.364,588.427 725.987,583.889 C727.091,577.766 735.469,571.311 741.325,571.324" fill="#14110F"/>
    <path d="M647.962,559.726 C648.234,561.719 650.196,566.597 652.728,566.688 C660.338,566.993 656.273,550.11 654.521,546.578 C646.053,529.48 642.455,558.752 650.74,565.526" fill="#14110F"/>
    <path d="M592.729,619.635 C589.079,623.895 575.599,631.454 573.689,627.818 C568.078,617.135 584.923,620.85 592.729,619.635" fill="#14110F"/>
    <path d="M605.196,660.57 C609.845,663.959 599.079,674.966 593.001,676.466 C595.156,669.064 601.04,657.544 605.196,660.57" fill="#14110F"/>
    <path d="M651.521,706.538 C646.078,707.934 647.741,689.316 651.17,684.362 C657.546,684.888 657.234,705.064 651.521,706.538" fill="#14110F"/>
    <path d="M723.936,667.94 C719.416,673.343 707.014,658.103 704.572,651.082 C708.363,649.765 728.909,661.966 723.936,667.94" fill="#14110F"/>
    <path d="M697.468,534.836 C701.818,542.234 696.754,553.325 693.481,559.181 C692.962,556.752 690.974,551.258 691.026,549.583 C691.195,544.083 692.325,537.642 697.468,534.836" fill="#14110F"/>
    <path d="M601.378,565.583 C606.377,561.266 616.027,573.298 619.923,580.48 C614.416,578.986 596.053,570.155 601.378,565.583" fill="#14110F"/>
    <path d="M715.156,512.311 C762.948,409.766 845.376,389.611 897.441,409.299 C905.44,412.325 912.87,416.241 919.701,420.954 C919.857,421.208 977.48,514.304 912.312,624.817 C864.799,705.374 811.835,701.452 781.938,697.53 C773.589,696.434 767.039,695.339 762.909,696.083 C700.26,663.583 693.779,558.162 715.156,512.311" fill="#C2D987"/>
    <path d="M772,532.506 C794.779,483.649 834.051,474.039 858.857,483.421 C862.662,484.87 866.701,486.142 869.467,488.974 C869.558,489.077 896.986,533.454 865.935,586.103 C843.304,624.49 818.062,622.621 803.816,620.752 C799.84,620.231 796.72,619.709 794.753,620.063 C764.909,604.577 761.818,554.35 772,532.506" fill="#F8EFC0"/>
    <path d="M912.312,624.817 C977.48,514.304 919.857,421.208 919.701,420.954 C967.168,453.701 985.194,525.09 959.077,606.895 C929.208,700.479 850.558,725.382 775.884,701.486 C771.313,700.025 767,698.207 762.909,696.083 C767.039,695.339 773.589,696.434 781.938,697.53 C811.835,701.452 864.799,705.374 912.312,624.817" fill="#A2BD61"/>
    <path d="M872.416,467.429 C876.216,465.348 876.318,470.879 874.268,476.412 C872.487,481.219 869.08,486.027 865.064,485.837 C863.065,479.935 867.285,470.246 872.416,467.429" fill="#14110F"/>
    <path d="M785.078,502.357 C786.26,503.98 790.338,507.298 792.611,506.156 C799.415,502.753 787.701,489.922 784.454,487.675 C768.792,476.799 779.779,504.168 790.299,506.09" fill="#14110F"/>
    <path d="M765.637,581.499 C764.493,586.986 756.351,600.116 752.909,597.856 C742.832,591.22 759.39,586.337 765.637,581.499" fill="#14110F"/>
    <path d="M796.312,611.311 C802.025,612.038 797.909,626.882 793.324,631.128 C791.637,623.61 791.221,610.667 796.312,611.311" fill="#14110F"/>
    <path d="M859.091,629.194 C854.999,633.044 847.454,615.94 848.065,609.948 C853.909,607.33 863.376,625.155 859.091,629.194" fill="#14110F"/>
    <path d="M903.844,560.428 C902.506,567.337 884.285,559.987 878.753,555.019 C881.441,552.025 905.324,552.792 903.844,560.428" fill="#14110F"/>
    <path d="M816.39,456.656 C823.779,461.032 824.688,473.188 824.662,479.896 C823.025,478.019 818.637,474.168 817.87,472.687 C815.364,467.786 813.246,461.597 816.39,456.656" fill="#14110F"/>
    <path d="M747.092,529.987 C749.402,523.791 763.662,529.662 770.546,534.078 C765,535.428 744.65,536.571 747.092,529.987" fill="#14110F"/>
    <path d="M626.391,644.895 C618.313,633.538 600.572,628.083 587.508,626.687 C584.976,626.414 582.093,626.713 579.039,627.258 C586.443,606.298 588.353,584.61 585.547,563.532 C584.857,566.545 584.065,569.538 583.001,572.499 C572.208,602.519 549.223,621.87 520.326,633.993 C491.43,646.116 463.742,646.35 433.015,646.116 C417.69,645.998 403.274,640.122 388.3,639.889 C394.95,650.375 409.521,655.414 407.482,671.297 C404.729,692.551 384.664,687.284 370.249,687.998 C372.69,696.946 368.275,709.374 357.197,710.102 C346.379,710.817 329.625,680.894 329.431,672.038 C314.938,676.571 305.574,692.375 296.898,676.466 C292.833,689.934 276.067,697.271 259.055,698.823 C260.015,699.356 260.951,699.856 261.847,700.311 C281.665,710.31 302.977,704.694 322.457,696.317 C326.418,711.226 343.093,717.453 357.119,714.57 C356.431,737.116 392.937,737.381 407.794,732.369 C428.235,765.44 467.638,758.466 483.976,725.765 C490.339,736.485 508.001,739.739 512.508,725.141 C533.118,763.913 592.157,708.661 569.664,688.246 C589.183,694.064 604.91,706.459 622.092,686.92 C632.455,675.155 635.702,657.948 626.391,644.895" fill="#D68A8C"/>
    <path d="M296.898,676.466 C296.327,695.564 317.535,689.998 322.34,679.881 C322.535,688.74 346.379,710.817 357.197,710.102 C368.275,709.374 372.69,696.946 370.249,687.998 C381.807,696.993 402.95,692.24 407.482,671.297 C412.859,646.454 399.417,643.369 388.3,639.889 C403.274,640.122 417.69,645.998 433.015,646.116 C463.742,646.35 491.43,646.116 520.326,633.993 C549.223,621.87 572.208,602.519 583.001,572.499 C584.065,569.538 584.857,566.545 585.547,563.532 C578.131,507.682 537.417,456.169 476.573,434.182 C392.417,403.779 301.717,441.363 273.977,518.129 C270.516,527.713 268.198,537.448 266.963,547.22 C247.535,537.343 220.912,539.623 204.957,559.032 C177.571,592.363 193.399,627.772 232.21,640.57 C225.224,651.454 221.756,665.265 240.47,664.324 C228.821,677.79 246.25,691.739 259.055,698.823 C276.067,697.271 292.833,689.934 296.898,676.466" fill="#E9C7C3"/>
    <path d="M438.431,435.364 C408.041,424.999 359.781,451.428 337.482,467.597 C328.093,474.403 266.587,533.662 307.016,538.864 C324.678,541.129 348.262,507.415 360.638,497.629 C375.184,486.143 389.963,479.921 407.028,473.662 C419.222,469.194 438.456,468.954 448.69,461.123 C463.274,449.974 450.664,441.467 438.431,435.364" fill="#F9DCDD"/>
    <path d="M922.727,720.423 C925.156,716.537 927.61,712.493 930.116,708.285 C965.96,648.102 1006.06,586.493 1076.39,552.012 C1105.04,537.96 1142.96,514.758 1155.26,488.591 C1142.96,514.758 1105.04,537.96 1076.39,552.012 C1006.06,586.493 965.96,648.102 930.116,708.285 C927.611,712.491 925.155,716.538 922.727,720.423" fill="#EEF7F5"/>
    <path d="M591.015,813.518 C738.363,799.309 762.261,737.725 762.261,737.725 C772.297,727.13 780.992,716.819 788.536,706.836 C789.715,706.518 790.871,706.2 792.033,705.876 C804.168,708.592 816.298,709.991 828.219,709.99 C884.652,709.986 936.19,678.602 959.077,606.895 C961.108,600.534 962.871,594.239 964.375,588.017 C986.152,579.032 1033.54,539.88 1074.04,497.281 C1083.51,499.414 1093.67,500.336 1103.51,500.336 C1128.38,500.336 1151.21,494.443 1155.86,487.285 C1155.67,487.722 1155.47,488.155 1155.26,488.591 C1142.96,514.758 1105.04,537.96 1076.39,552.012 C1006.06,586.493 965.96,648.102 930.116,708.285 C927.61,712.493 925.156,716.537 922.727,720.423 C874.41,797.718 835.876,812.479 591.015,813.518 M815.143,698.7 L815.144,698.7 C843.625,695.925 878.897,680.86 911.644,625.943 C878.894,680.865 843.625,695.927 815.143,698.7 M911.696,625.856 C911.702,625.846 911.709,625.834 911.714,625.824 C911.709,625.834 911.702,625.846 911.696,625.856 M911.914,625.489 C911.922,625.475 911.931,625.461 911.939,625.446 C911.931,625.461 911.922,625.475 911.914,625.489 M912.002,625.34 C912.031,625.291 912.055,625.251 912.084,625.202 C912.055,625.251 912.031,625.291 912.002,625.34" fill="#EDF7F5"/>
    <path d="M788.536,706.836 C788.917,706.333 789.292,705.832 789.667,705.33 C790.454,705.517 791.245,705.7 792.033,705.876 C790.871,706.2 789.715,706.518 788.536,706.836 M804.192,699.22 L804.188,699.22 L804.192,699.22 M804.236,699.22 C807.74,699.219 811.382,699.067 815.144,698.7 L815.143,698.7 C811.382,699.067 807.74,699.219 804.236,699.22" fill="#EAEDC7"/>
    <path d="M964.375,588.017 C967.937,573.283 970.041,558.975 970.778,545.272 C990.214,532.961 1020.43,512.731 1048.42,489.47 C1054.96,491.546 1060.77,493.424 1065.56,494.974 C1068.3,495.861 1071.14,496.628 1074.04,497.281 C1033.54,539.88 986.152,579.032 964.375,588.017" fill="#DACCA7"/>
    <path d="M970.778,545.272 C972.437,514.433 967.177,486.655 956.042,463.942 C957.174,464.183 958.312,464.43 959.456,464.681 C959.62,465.065 959.863,465.442 960.193,465.811 C960.763,466.451 961.709,466.694 962.78,466.694 C962.844,466.694 962.908,466.693 962.973,466.691 C963.27,466.724 963.574,466.74 963.883,466.74 C964.804,466.74 965.775,466.599 966.77,466.344 C995.359,473.034 1026.17,482.408 1048.42,489.47 C1020.43,512.731 990.214,532.961 970.778,545.272" fill="#EAEDCB"/>
    <path d="M963.883,466.74 C963.574,466.74 963.27,466.724 962.973,466.691 C962.908,466.693 962.844,466.694 962.78,466.694 C961.709,466.694 960.763,466.451 960.193,465.811 C959.863,465.442 959.62,465.065 959.456,464.681 C961.872,465.213 964.314,465.769 966.77,466.344 C965.775,466.599 964.804,466.74 963.883,466.74" fill="#737777"/>
    <path d="M804.192,699.22 L804.188,699.22 C800.777,699.22 797.505,699.077 794.379,698.85 C816.143,668.102 827.116,640.684 833.29,617.906 C843.784,613.538 855.155,604.387 865.935,586.103 C896.986,533.454 869.558,489.077 869.467,488.974 C869.333,488.837 869.196,488.703 869.057,488.574 C877.703,472.904 888.492,460.852 901.636,458.629 C904.489,458.148 907.768,457.923 911.411,457.923 C918.364,457.923 926.625,458.741 935.699,460.147 C939.944,475.23 943.368,494.055 943.363,515.532 C943.354,547.33 935.827,584.939 912.312,624.817 C912.236,624.945 912.159,625.075 912.084,625.202 C912.055,625.251 912.031,625.291 912.002,625.34 C911.982,625.375 911.96,625.412 911.939,625.446 C911.931,625.461 911.922,625.475 911.914,625.489 C911.847,625.602 911.781,625.712 911.714,625.824 C911.709,625.834 911.702,625.846 911.696,625.856 C911.678,625.885 911.661,625.914 911.644,625.943 C878.897,680.86 843.625,695.925 815.144,698.7 C811.382,699.067 807.74,699.219 804.236,699.22 C804.222,699.22 804.206,699.22 804.192,699.22 M849.3,609.686 C848.876,609.686 848.462,609.77 848.065,609.948 C847.515,615.344 853.579,629.752 857.779,629.752 C858.243,629.752 858.684,629.577 859.091,629.194 C863.085,625.429 855.131,609.686 849.3,609.686 M887.298,553.391 C883.191,553.391 879.688,553.977 878.753,555.019 C882.67,558.536 892.946,563.247 899.089,563.247 C901.622,563.247 903.453,562.446 903.844,560.428 C904.809,555.449 894.992,553.391 887.298,553.391" fill="#CFE3B3"/>
    <path d="M833.29,617.906 C839.416,595.302 840.821,577.261 843.364,565.064 C847.21,546.615 855.499,513.145 869.057,488.574 C869.196,488.703 869.333,488.837 869.467,488.974 C869.558,489.077 896.986,533.454 865.935,586.103 C855.155,604.387 843.784,613.538 833.29,617.906" fill="#EAF2D7"/>
    <path d="M828.219,709.99 C816.298,709.991 804.168,708.592 792.033,705.876 C791.245,705.7 790.454,705.517 789.667,705.33 C791.293,703.152 792.86,700.996 794.379,698.85 C797.505,699.077 800.777,699.22 804.188,699.22 L804.192,699.22 C804.206,699.22 804.222,699.22 804.236,699.22 C807.74,699.219 811.382,699.067 815.143,698.7 C843.625,695.927 878.894,680.865 911.644,625.943 C911.661,625.914 911.678,625.885 911.696,625.856 C911.702,625.846 911.709,625.834 911.714,625.824 C911.781,625.712 911.847,625.602 911.914,625.489 C911.922,625.475 911.931,625.461 911.939,625.446 C911.96,625.412 911.982,625.375 912.002,625.34 C912.031,625.291 912.055,625.251 912.084,625.202 C912.159,625.075 912.236,624.945 912.312,624.817 C935.827,584.939 943.354,547.33 943.363,515.532 C943.368,494.055 939.944,475.23 935.699,460.147 C942.129,461.144 948.972,462.436 956.042,463.942 C967.177,486.655 972.437,514.433 970.778,545.272 C970.041,558.975 967.937,573.283 964.375,588.017 C962.871,594.239 961.108,600.534 959.077,606.895 C936.19,678.602 884.652,709.986 828.219,709.99" fill="#BBD79B"/>
    <path d="M857.779,629.752 C853.579,629.752 847.515,615.344 848.065,609.948 C848.462,609.77 848.876,609.686 849.3,609.686 C855.131,609.686 863.085,625.429 859.091,629.194 C858.684,629.577 858.243,629.752 857.779,629.752" fill="#737777"/>
    <path d="M899.089,563.247 C892.946,563.247 882.67,558.536 878.753,555.019 C879.688,553.977 883.191,553.391 887.298,553.391 C894.992,553.391 904.809,555.449 903.844,560.428 C903.453,562.446 901.622,563.247 899.089,563.247" fill="#737777"/>
    <g>
      <path d="M1110.57,495.298 C1061.99,493.61 1031.43,465.078 986.312,455.649 C957.401,449.598 911.96,445.896 882.597,453.013 C850.637,460.741 851.766,475.571 848.987,497.415 C841.272,557.791 775.065,549.519 716.091,531.714 C642.053,509.375 586.43,459.74 500.131,491.012 C445.119,510.961 373.482,593.649 303.236,556.544 C285.093,546.96 286.158,532.506 289.872,517.804 C286.782,528.583 285.08,539.876 290.587,550.61 C294.898,559.013 301.729,571.324 308.301,584.103 C348.846,662.972 393.898,787.479 376.223,738.635 C348.846,662.972 385.534,583.466 413.002,556.986 C413.002,556.986 494.157,488.013 550.82,488.805 C607.494,489.597 739.286,550.844 756.156,574.87 C773.039,598.908 780.415,685.051 762.261,737.725 C837.728,658.064 837.221,594.525 843.364,565.064 C849.662,534.85 867.883,464.338 901.636,458.629 C935.389,452.929 1029.41,483.273 1065.56,494.974 C1099.91,506.09 1148.82,498.143 1155.86,487.285 C1156.12,486.714 1156.43,486.143 1156.66,485.571 C1146.18,494.025 1129.75,495.961 1110.57,495.298" fill="#ABD4D2"/>
      <path d="M7.997,480.973 C8.15,481.493 8.312,482.019 8.491,482.545 C18.166,511.324 62.305,536.551 87.753,549.026 C153.182,581.11 204.302,635.72 235.593,706.947 C235.743,707.297 235.84,707.667 235.866,708.05 C235.944,709.051 247.821,810.264 553.722,810.271 L560.079,810.257 C847.403,808.978 873.98,796.038 927.26,706.582 C965.013,643.201 1004.71,583.455 1074.93,549.026 C1095.53,538.921 1129.49,519.876 1146.19,497.207 C1134.78,501.441 1118.12,503.662 1103.51,503.662 C1089.18,503.662 1075.7,501.752 1064.53,498.136 C1033.37,488.045 950.591,461.247 911.415,461.247 C907.882,461.247 904.778,461.467 902.188,461.909 C869.558,467.429 851.402,542.778 846.616,565.747 C845.779,569.786 845.064,574.473 844.254,579.759 C839.064,613.752 830.376,670.655 764.676,740.011 C763.598,741.148 761.89,741.388 760.533,740.57 C759.195,739.758 758.604,738.122 759.116,736.641 C777.805,682.414 768.799,598.648 753.436,576.779 C737.053,553.448 606.689,492.91 550.774,492.129 L549.845,492.122 C495.086,492.122 415.95,558.843 415.158,559.519 C389.353,584.402 352.151,662.342 379.346,737.504 C381.203,742.622 382.301,745.661 382.885,747.569 C383.015,747.887 383.106,748.109 383.158,748.219 L383.086,748.251 C383.697,750.42 383.45,750.784 382.898,751.57 C382.236,752.525 381.112,752.992 379.943,752.992 C378.58,752.992 378.061,752.869 376.989,750.538 L376.969,750.543 L376.911,750.374 C376.359,749.162 375.665,747.375 374.638,744.765 C347.938,676.668 324.619,623.122 305.347,585.622 C301.762,578.662 298.106,571.836 294.82,565.713 C292.081,560.59 289.593,555.954 287.626,552.129 C279.886,537.032 285.061,521.35 289.626,507.512 C293.366,496.175 296.594,486.383 292.061,479.623 C287.386,472.642 274.333,468.48 252.171,466.903 C245.561,466.428 238.697,466.188 231.776,466.188 C179.37,466.188 126.672,479.578 82.036,492.668 C64.941,497.688 51.214,501.026 39.803,501.026 C23.968,501.026 13.66,494.603 7.997,480.973 z M553.722,816.919 C249.432,816.913 230.418,718.811 229.289,709.135 C198.623,639.603 148.679,586.304 84.825,554.999 C58.448,542.065 12.633,515.733 2.186,484.662 C-1.295,474.305 -0.616,464.195 4.205,454.61 C4.913,453.201 6.51,452.474 8.04,452.895 C9.563,453.305 10.588,454.727 10.494,456.306 C10.218,460.909 10.51,465.253 11.358,469.226 C15.121,486.857 23.627,494.375 39.799,494.375 C50.422,494.375 63.617,491.142 80.165,486.292 C125.253,473.065 178.526,459.539 231.776,459.539 C238.853,459.539 245.873,459.785 252.639,460.266 C277.327,462.026 291.606,467 297.587,475.921 C303.931,485.383 300.048,497.142 295.938,509.596 C291.581,522.812 287.074,536.474 293.548,549.09 C295.496,552.889 297.957,557.487 300.684,562.571 C303.982,568.727 307.658,575.583 311.256,582.583 C326.516,612.265 344.268,651.888 364.204,700.746 C357.483,636.212 388.165,576.311 410.697,554.59 C414.164,551.636 492.67,485.474 549.845,485.474 L550.864,485.48 C609.715,486.304 741.487,548.194 758.877,572.96 C775.24,596.259 782.169,672.317 769.415,724.966 C824.994,661.875 832.87,610.258 837.682,578.752 C838.513,573.33 839.246,568.525 840.11,564.381 C848.077,526.168 866.591,461.182 901.084,455.351 C904.038,454.85 907.513,454.597 911.415,454.597 C951.643,454.597 1035.15,481.636 1066.58,491.811 C1077.1,495.214 1089.86,497.012 1103.51,497.012 C1128.31,497.012 1149.53,490.935 1153.06,485.474 C1154.01,484.019 1155.91,483.539 1157.43,484.356 C1158.95,485.175 1159.6,487.025 1158.9,488.616 C1146.06,518.09 1102.61,542.857 1077.85,554.999 C1009.28,588.622 970.194,647.493 932.974,709.986 C878.013,802.265 850.961,815.616 560.105,816.908 L553.722,816.919" fill="#ABD4D2"/>
    </g>
  </g>
</svg>
