<?xml version="1.0" encoding="UTF-8" standalone="no"?>
<!-- Created with Inkscape (http://www.inkscape.org/) -->
<svg xmlns:inkscape="http://www.inkscape.org/namespaces/inkscape" xmlns:rdf="http://www.w3.org/1999/02/22-rdf-syntax-ns#" xmlns="http://www.w3.org/2000/svg" xmlns:xlink="http://www.w3.org/1999/xlink" xmlns:ns1="http://sozi.baierouge.fr" xmlns:cc="http://creativecommons.org/ns#" xmlns:sodipodi="http://sodipodi.sourceforge.net/DTD/sodipodi-0.dtd" xmlns:dc="http://purl.org/dc/elements/1.1/" id="svg2" xml:space="preserve" viewBox="0 0 58.398 31.883" version="1.1" inkscape:version="0.91 r13725">
  <defs id="defs6">
    <linearGradient id="linearGradient26" y2="-31.55" gradientUnits="userSpaceOnUse" x2="30.925" gradientTransform="matrix(.64 0 0 .64 -.001616 25.516)" y1="-31.55" x1="14.675">
      <stop id="stop28" style="stop-color:#677925" offset="0"/>
      <stop id="stop30" style="stop-color:#c0dc54" offset="1"/>
    </linearGradient>
    <linearGradient id="linearGradient44" y2="-30.231" gradientUnits="userSpaceOnUse" x2="12.692" gradientTransform="matrix(.64 0 0 .64 -.001616 25.516)" y1="-30.231" x1="1.1997">
      <stop id="stop46" style="stop-color:#677925" offset="0"/>
      <stop id="stop48" style="stop-color:#c0dc54" offset="1"/>
    </linearGradient>
    <linearGradient id="linearGradient64" y2="-33.684" gradientUnits="userSpaceOnUse" x2="31.762" gradientTransform="matrix(.64 0 0 .64 -.001616 25.516)" y1="-33.684" x1="24.437">
      <stop id="stop66" style="stop-color:#677925" offset="0"/>
      <stop id="stop68" style="stop-color:#c0dc54" offset="1"/>
    </linearGradient>
    <linearGradient id="linearGradient84" y2="-35.553" gradientUnits="userSpaceOnUse" x2="44.562" gradientTransform="matrix(.64 0 0 .64 -.001616 25.516)" y1="-35.553" x1="36.937">
      <stop id="stop86" style="stop-color:#677925" offset="0"/>
      <stop id="stop88" style="stop-color:#c0dc54" offset="1"/>
    </linearGradient>
    <linearGradient id="linearGradient104" y2="-36.803" gradientUnits="userSpaceOnUse" x2="50.687" gradientTransform="matrix(.64 0 0 .64 -.001616 25.516)" y1="-36.803" x1="44.212">
      <stop id="stop106" style="stop-color:#677925" offset="0"/>
      <stop id="stop108" style="stop-color:#c0dc54" offset="1"/>
    </linearGradient>
    <linearGradient id="linearGradient122" y2="-38.409" gradientUnits="userSpaceOnUse" x2="58.149" gradientTransform="matrix(.64 0 0 .64 -.001616 25.516)" y1="-38.409" x1="51.85">
      <stop id="stop124" style="stop-color:#677925" offset="0"/>
      <stop id="stop126" style="stop-color:#c0dc54" offset="1"/>
    </linearGradient>
    <linearGradient id="linearGradient140" y2="-152.94" gradientUnits="userSpaceOnUse" x2="-2427.9" gradientTransform="matrix(.63994 -.009408 .19565 .63718 1598.8 79.278)" y1="-152.94" x1="-2441.5">
      <stop id="stop142" style="stop-color:#677925" offset="0"/>
      <stop id="stop144" style="stop-color:#c0dc54" offset="1"/>
    </linearGradient>
    <linearGradient id="linearGradient242" y2="-17900" gradientUnits="userSpaceOnUse" x2="2034.7" gradientTransform="matrix(-.14214 -.624 .624 -.14214 11481 -1271.4)" y1="-17900" x1="2026.1">
      <stop id="stop244" style="stop-color:#677925" offset="0"/>
      <stop id="stop246" style="stop-color:#c0dc54" offset="1"/>
    </linearGradient>
    <linearGradient id="linearGradient260" y2="-2023.6" gradientUnits="userSpaceOnUse" x2="-1582.3" gradientTransform="matrix(.62406 -.14208 .14208 .62406 1290.8 1054.4)" y1="-2023.6" x1="-1597.5">
      <stop id="stop262" style="stop-color:#677925" offset="0"/>
      <stop id="stop264" style="stop-color:#c0dc54" offset="1"/>
    </linearGradient>
    <linearGradient id="linearGradient278" y2="-2030.7" gradientUnits="userSpaceOnUse" x2="-1588.1" gradientTransform="matrix(.624 -.14214 .14214 .624 1291.6 1055)" y1="-2030.7" x1="-1602">
      <stop id="stop280" style="stop-color:#677925" offset="0"/>
      <stop id="stop282" style="stop-color:#c0dc54" offset="1"/>
    </linearGradient>
    <linearGradient id="linearGradient296" y2="-2019.5" gradientUnits="userSpaceOnUse" x2="-1563.1" gradientTransform="matrix(.62419 -.14150 .14150 .62419 1285.1 1050.9)" y1="-2019.5" x1="-1575.2">
      <stop id="stop298" style="stop-color:#677925" offset="0"/>
      <stop id="stop300" style="stop-color:#c0dc54" offset="1"/>
    </linearGradient>
    <linearGradient id="linearGradient314" y2="-17915" gradientUnits="userSpaceOnUse" x2="2031.5" gradientTransform="matrix(-.14234 -.624 .624 -.14234 11482 -1272.9)" y1="-17915" x1="2022.8">
      <stop id="stop316" style="stop-color:#677925" offset="0"/>
      <stop id="stop318" style="stop-color:#c0dc54" offset="1"/>
    </linearGradient>
    <linearGradient id="linearGradient332" y2="-2032.3" gradientUnits="userSpaceOnUse" x2="-1561.2" gradientTransform="matrix(.624 -.14214 .14214 .624 1291.5 1054.8)" y1="-2032.3" x1="-1568.4">
      <stop id="stop334" style="stop-color:#677925" offset="0"/>
      <stop id="stop336" style="stop-color:#c0dc54" offset="1"/>
    </linearGradient>
    <linearGradient id="linearGradient350" y2="2117.8" gradientUnits="userSpaceOnUse" x2="3042.7" gradientTransform="matrix(.60717 .20237 -.20237 .60717 -1385.3 -1894.4)" y1="2117.8" x1="3035.1">
      <stop id="stop352" style="stop-color:#677925" offset="0"/>
      <stop id="stop354" style="stop-color:#c0dc54" offset="1"/>
    </linearGradient>
    <linearGradient id="linearGradient368" y2="-17861" gradientUnits="userSpaceOnUse" x2="2006.4" gradientTransform="matrix(-.14061 -.62438 .62438 -.14061 11471 -1256)" y1="-17861" x1="2003.6">
      <stop id="stop370" style="stop-color:#677925" offset="0"/>
      <stop id="stop372" style="stop-color:#c0dc54" offset="1"/>
    </linearGradient>
    <linearGradient id="linearGradient386" y2="-17850" gradientUnits="userSpaceOnUse" x2="1993.7" gradientTransform="matrix(-.13971 -.62458 .62458 -.13971 11465 -1246.8)" y1="-17850" x1="1991.7">
      <stop id="stop388" style="stop-color:#677925" offset="0"/>
      <stop id="stop390" style="stop-color:#c0dc54" offset="1"/>
    </linearGradient>
    <linearGradient id="linearGradient404" y2="-17893" gradientUnits="userSpaceOnUse" x2="2063.3" gradientTransform="matrix(-.14426 -.62355 .62355 -.14426 11494 -1292.8)" y1="-17893" x1="2060.2">
      <stop id="stop406" style="stop-color:#677925" offset="0"/>
      <stop id="stop408" style="stop-color:#c0dc54" offset="1"/>
    </linearGradient>
    <linearGradient id="linearGradient422" y2="-17903" gradientUnits="userSpaceOnUse" x2="2081.5" gradientTransform="matrix(-.14541 -.62323 .62323 -.14541 11501 -1304.2)" y1="-17903" x1="2080">
      <stop id="stop424" style="stop-color:#677925" offset="0"/>
      <stop id="stop426" style="stop-color:#c0dc54" offset="1"/>
    </linearGradient>
    <linearGradient id="linearGradient442" y2="-17895" gradientUnits="userSpaceOnUse" x2="2071.2" gradientTransform="matrix(-.14483 -.62342 .62342 -.14483 11498 -1298.2)" y1="-17895" x1="2068.6">
      <stop id="stop444" style="stop-color:#677925" offset="0"/>
      <stop id="stop446" style="stop-color:#c0dc54" offset="1"/>
    </linearGradient>
    <linearGradient id="linearGradient460" y2="-17873" gradientUnits="userSpaceOnUse" x2="2040.2" gradientTransform="matrix(-.14285 -.62387 .62387 -.14285 11485 -1278.5)" y1="-17873" x1="2036.8">
      <stop id="stop462" style="stop-color:#677925" offset="0"/>
      <stop id="stop464" style="stop-color:#c0dc54" offset="1"/>
    </linearGradient>
    <linearGradient id="linearGradient522" y2="-2040.2" gradientUnits="userSpaceOnUse" x2="-1586.4" gradientTransform="matrix(.624 -.14234 .14234 .624 1293.6 1056.2)" y1="-2040.2" x1="-1602.8">
      <stop id="stop524" style="stop-color:#67791e" offset="0"/>
      <stop id="stop526" style="stop-color:#cae55b" offset="1"/>
    </linearGradient>
  </defs>
  <g id="g10" transform="matrix(1.25 0 0 -1.25 0 31.883)">
    <g id="g12">
      <path id="path14" style="fill-rule:evenodd;fill:#586818" d="m23.008 4.011c0.019 0.429 0 0.726-0.067 0.898-0.105 0.34-0.328 0.426-0.671 0.254-0.34-0.172-0.575-0.402-0.704-0.703-0.277-0.641 0.032-1.09 0.93-1.344 0.371-0.102 0.852-0.203 1.438-0.305-0.082 0.071-0.168 0.153-0.254 0.243-0.407 0.402-0.629 0.722-0.672 0.957zm5.215-1.825c-0.278 0.043-0.461 0.086-0.543 0.129-0.172 0.086-0.309 0.235-0.418 0.449l-0.129 0.575c-0.235 0.511-0.52 0.715-0.863 0.609-0.364-0.105-0.649-0.352-0.864-0.734-0.105-0.196-0.179-0.344-0.222-0.45-0.11-0.191-0.215-0.308-0.321-0.351-0.16-0.067-0.367-0.016-0.625 0.16-0.246-0.164-0.558-0.269-0.945-0.32-0.211-0.024-0.629-0.032-1.246-0.032-1.024 0-1.695 0.032-2.016 0.094-0.129 0.043-0.277 0.129-0.449 0.258-0.211 0.125-0.363 0.211-0.449 0.254-0.617 0.258-0.992 0.449-1.117 0.578-0.258 0.34-0.45 0.563-0.578 0.672-0.192 0.191-0.446 0.297-0.766 0.32-0.492-0.023-0.867-0.023-1.121 0l-1.664 0.321c-0.684 0.125-1.25 0.211-1.696 0.253-0.363 0.043-0.812-0.011-1.343-0.16-0.407-0.086-1.145-0.105-2.211-0.062-0.703 0-1.227 0.086-1.567 0.254l-0.414 0.289c-0.109 0.043-0.234 0.062-0.386 0.062-1.387-0.105-2.227-0.16-2.528-0.16-1.43 0-2.496 0.203-3.199 0.61-0.578 0.363-0.695 0.628-0.352 0.8 0.168 0.106 0.512 0.117 1.024 0.032 0.726 0.085 1.281 0.214 1.664 0.382 1.086 0.364 1.652 0.684 1.695 0.961l4.895 0.992c0.066-0.042 0.14-0.074 0.226-0.097h0.223l1.184-0.094c0.98-0.148 2.144-0.437 3.488-0.863 0.769-0.235 1.922-0.59 3.457-1.059 0.383-0.105 1.055-0.265 2.015-0.476 0.852-0.172 1.524-0.344 2.016-0.516 0.406-0.148 1.004-0.371 1.793-0.672l2.941-0.832c0.602-0.168 1.497-0.402 2.692-0.703 1.023-0.297 1.887-0.672 2.59-1.121 0.234-0.149 0.437-0.402 0.609-0.766 0.086-0.215 0.211-0.543 0.383-0.992-0.383-0.062-0.801 0.086-1.246 0.449-0.578 0.469-0.961 0.735-1.152 0.797-0.321 0.11-0.739 0.153-1.25 0.129-0.618 0-1.024 0.012-1.215 0.031z" inkscape:connector-curvature="0"/>
      <g id="g16">
        <g id="g18">
          <g id="g24">
            <path id="path32" style="fill-rule:evenodd;fill:url(#linearGradient26)" d="m12.094 7.179c0.172-0.04 0.426-0.075 0.769-0.094l2.782-0.352c0.578-0.086 1.453-0.183 2.625-0.289 0.425-0.086 0.777-0.277 1.054-0.578 0.321-0.316 0.481-0.723 0.481-1.215 0-0.746-0.395-1.207-1.184-1.375-0.211-0.043-0.851-0.062-1.918-0.062-0.898 0-1.879 0.082-2.945 0.254-0.813 0.128-1.281 0.214-1.406 0.257-0.493 0.125-0.93 0.321-1.313 0.575-1.09 0.789-1.633 1.836-1.633 3.136h1.918c0.196-0.129 0.449-0.215 0.77-0.257z" inkscape:connector-curvature="0"/>
          </g>
        </g>
      </g>
      <g id="g34">
        <g id="g36">
          <g id="g42">
            <path id="path50" style="fill-rule:evenodd;fill:url(#linearGradient44)" d="m5.758 8.046 2.367 0.828c0.043-0.746-0.082-1.789-0.383-3.133-0.105-0.512-0.469-0.992-1.086-1.441-0.535-0.364-0.832-0.555-0.898-0.575-0.449-0.129-0.906-0.214-1.375-0.257-1.004-0.043-1.867 0.086-2.594 0.382-0.277 0.11-0.512 0.27-0.703 0.481-0.254 0.258-0.352 0.543-0.289 0.863 0.066 0.387 0.312 0.652 0.738 0.801 0.106 0.043 0.457 0.117 1.055 0.226 0.703 0.106 1.258 0.297 1.664 0.575 0.215 0.129 0.512 0.383 0.894 0.769 0.301 0.297 0.504 0.457 0.61 0.481z" inkscape:connector-curvature="0"/>
          </g>
        </g>
      </g>
      <path id="path52" style="fill-rule:evenodd;fill:#c8de5a" d="m7.551 8.046 0.574 0.351c-0.02-0.75-0.148-1.633-0.383-2.656-0.105-0.512-0.469-0.992-1.086-1.441-0.535-0.364-0.832-0.555-0.898-0.575-0.449-0.129-0.906-0.214-1.375-0.257-1.004-0.043-1.867 0.086-2.594 0.382-0.723 0.278-1.055 0.696-0.992 1.25 1.195-1.089 2.594-1.472 4.195-1.152 1.727 0.34 2.676 1.449 2.848 3.328 0.039 0.278-0.055 0.531-0.289 0.77z" inkscape:connector-curvature="0"/>
      <g id="g54">
        <g id="g56">
          <g id="g62">
            <path id="path70" style="fill-rule:evenodd;fill:url(#linearGradient64)" d="m16.957 1.323c-0.32 0.023-0.617 0.16-0.895 0.418-0.3 0.297-0.437 0.641-0.417 1.023 0.023 0.364 0.203 0.692 0.546 0.993 0.129 0.129 0.383 0.297 0.766 0.511 0.363 0.211 0.621 0.407 0.77 0.575 0.171 0.214 0.265 0.492 0.289 0.832v0.961l1.789-0.192c-0.02-0.129 0.011-0.289 0.097-0.48 0.043-0.129 0.106-0.289 0.192-0.481 0.148-0.32 0.226-0.765 0.226-1.344 0-0.832-0.086-1.441-0.258-1.824-0.406-0.832-1.441-1.16-3.105-0.992z" inkscape:connector-curvature="0"/>
          </g>
        </g>
      </g>
      <path id="path72" style="fill-rule:evenodd;fill:#c8de5a" d="m16.957 1.323c-0.254 0.023-0.5 0.117-0.734 0.289-0.258 0.192-0.426 0.426-0.512 0.703 0.766-0.554 1.598-0.746 2.496-0.574 0.961 0.191 1.59 0.797 1.887 1.824 0.129 0.489 0.129 0.969 0 1.438-0.149 0.492-0.406 0.843-0.766 1.058l-0.226 0.094v0.383l0.703-0.094c-0.02-0.129 0.011-0.289 0.097-0.48 0.043-0.129 0.106-0.289 0.192-0.481 0.148-0.32 0.226-0.765 0.226-1.344 0-0.832-0.086-1.441-0.258-1.824-0.406-0.832-1.441-1.16-3.105-0.992z" inkscape:connector-curvature="0"/>
      <g id="g74">
        <g id="g76">
          <g id="g82">
            <path id="path90" style="fill-rule:evenodd;fill:url(#linearGradient84)" d="m25.918 4.651c0.023-0.449 0.203-0.875 0.543-1.281 0.301-0.34 0.641-0.606 1.027-0.797 0.192-0.109 0.446-0.227 0.766-0.352 0.215-0.152 0.289-0.398 0.223-0.738-0.063-0.512-0.297-0.777-0.704-0.801-0.253-0.019-0.851 0.043-1.793 0.192-0.679 0.109-1.066 0.183-1.148 0.226-0.406 0.211-0.727 0.543-0.961 0.993-0.234 0.488-0.309 0.98-0.226 1.472 0.128 0.321 0.214 0.563 0.257 0.735v0.289c0 0.129 0.02 0.211 0.063 0.254l1.953-0.192z" inkscape:connector-curvature="0"/>
          </g>
        </g>
      </g>
      <path id="path92" style="fill-rule:evenodd;fill:#c8de5a" d="m27.773 1.132c0.301-0.024 0.543 0.117 0.735 0.418l-0.031-0.067c-0.063-0.512-0.297-0.777-0.704-0.801-0.253-0.019-0.851 0.043-1.793 0.192-0.679 0.109-1.066 0.183-1.152 0.226-0.383 0.192-0.68 0.5-0.894 0.926-0.235 0.43-0.332 0.875-0.289 1.344 0.148-0.809 0.695-1.395 1.632-1.758 0.578-0.234 1.411-0.394 2.496-0.48z" inkscape:connector-curvature="0"/>
      <g id="g94">
        <g id="g96">
          <g id="g102">
            <path id="path110" style="fill-rule:evenodd;fill:url(#linearGradient104)" d="m28.734 3.405 0.512 0.063c0.727-0.297 1.356-0.821 1.887-1.567 0.406-0.535 0.703-0.875 0.898-1.027 0.254-0.211 0.395-0.328 0.414-0.352-1.472-0.211-2.718 0.078-3.742 0.867-0.172 0.149-0.289 0.297-0.351 0.446-0.043 0.129-0.067 0.344-0.067 0.64 0 0.684 0.149 0.993 0.449 0.93z" inkscape:connector-curvature="0"/>
          </g>
        </g>
      </g>
      <g id="g112">
        <g id="g114">
          <g id="g120">
            <path id="path128" style="fill-rule:evenodd;fill:url(#linearGradient122)" d="m33.406 1.866 3.809-1.629c-0.192-0.191-0.512-0.269-0.961-0.226-0.106 0-0.426 0.054-0.961 0.16-0.914 0.191-1.621 0.566-2.109 1.121 0.043 0.234 0.117 0.426 0.222 0.574z" inkscape:connector-curvature="0"/>
          </g>
        </g>
      </g>
      <g id="g130">
        <g id="g132">
          <g id="g138">
            <path id="path146" style="fill-rule:evenodd;fill:url(#linearGradient140)" d="m15.422 8.651c0.449-1.281 0.332-2.75-0.352-4.414-0.511-1.258-1.023-2.125-1.535-2.594-0.812-0.746-1.644-1.066-2.496-0.961-1.047 0.067-1.824 0.141-2.336 0.227-0.875 0.191-1.57 0.488-2.082 0.895-0.789 0.617-0.851 1.324-0.191 2.113 0.425 0.488 1.215 1 2.367 1.535 1.109 0.512 1.859 1.023 2.242 1.535l4.383 1.664z" inkscape:connector-curvature="0"/>
          </g>
        </g>
      </g>
      <path id="path148" style="fill-rule:evenodd;fill:#c8de5a" d="m15.613 6.026c-0.086-0.555-0.265-1.152-0.543-1.789-0.511-1.258-1.023-2.125-1.535-2.594-0.812-0.746-1.644-1.066-2.496-0.961-1.047 0.067-1.824 0.141-2.336 0.227-0.578 0.105-1.121 0.309-1.633 0.605-0.683 0.387-1.035 0.832-1.054 1.344l0.093-0.125c0.813-0.449 1.493-0.769 2.047-0.961 0.11-0.301 0.344-0.449 0.707-0.449 0.981-0.043 1.684-0.043 2.11 0 0.812 0.086 1.515 0.332 2.113 0.738 1.258 0.875 2.09 2.153 2.496 3.84l0.031 0.125z" inkscape:connector-curvature="0"/>
      <path id="path150" style="fill-rule:evenodd;fill:#455210" d="m5.98 7.886 1.571 0.832c-0.129-0.153-0.258-0.418-0.383-0.801-0.152-0.363-0.277-0.61-0.387-0.738l-0.734-0.735c-0.235-0.301-0.641-0.48-1.215-0.543-0.449-0.066-0.91-0.055-1.379 0.031 0.086 0.106 0.332 0.172 0.738 0.192 0.211 0.062 0.414 0.191 0.606 0.383 0.086 0.086 0.277 0.332 0.578 0.738 0.254 0.34 0.457 0.555 0.605 0.641z" inkscape:connector-curvature="0"/>
      <path id="path152" style="fill-rule:evenodd;fill:#455210" d="m12.352 9.034 2.175-1.277c-0.875-1.196-1.515-2.008-1.922-2.434-1.363-1.492-2.367-2.25-3.007-2.269 0.129 0.105 0.492 0.402 1.09 0.894 0.511 0.406 0.863 0.715 1.054 0.926 0.832 1.027 1.461 1.867 1.887 2.531 0.043 0.082-0.16 0.352-0.606 0.797-0.449 0.473-0.671 0.75-0.671 0.832z" inkscape:connector-curvature="0"/>
      <path id="path154" style="fill-rule:evenodd;fill:#455210" d="m18.781 6.346 0.961 0.098c0-0.703-0.097-1.258-0.289-1.664-0.105-0.32-0.32-0.609-0.641-0.863-0.359-0.301-0.66-0.363-0.894-0.192 0.383 0.555 0.641 1 0.77 1.344 0.277 0.617 0.308 1.043 0.093 1.277z" inkscape:connector-curvature="0"/>
      <path id="path156" style="fill-rule:evenodd;fill:#455210" d="m16.16 6.893 0.735-0.16c-0.02-0.258-0.192-0.59-0.512-0.992-0.684-0.898-1.195-1.324-1.535-1.281l1.023 1.504c0.106 0.215 0.203 0.523 0.289 0.929z" inkscape:connector-curvature="0"/>
      <path id="path158" style="fill-rule:evenodd;fill:#455210" d="m25.246 4.749 0.047 0.574c0-0.223 0.082-0.523 0.242-0.894 0.106-0.235 0.254-0.555 0.445-0.961 0.153-0.34 0.356-0.598 0.61-0.77-1.324 0.492-1.77 1.176-1.344 2.051z" inkscape:connector-curvature="0"/>
      <path id="path160" style="fill-rule:evenodd;fill:#455210" d="m29.566 2.925 0.414 0.382c0-0.425 0.086-0.886 0.258-1.375 0.192-0.554 0.426-0.918 0.703-1.089-0.574 0.152-1.035 0.843-1.375 2.082z" inkscape:connector-curvature="0"/>
      <path id="path162" style="fill-rule:evenodd;fill:#455210" d="m14.078 8.171c0.086 0 0.363-0.086 0.832-0.254 0.555-0.192 0.852-0.363 0.895-0.512v-0.707c-0.106-0.746-0.254-1.227-0.446-1.437-0.621 0.531-1.324 0.722-2.113 0.574-0.191-0.043-0.332-0.074-0.414-0.094-0.152-0.023-0.258 0.031-0.32 0.16-0.024 0.235-0.098 0.414-0.227 0.543-0.082 0.063-0.16 0.094-0.223 0.094-0.105-0.039-0.203-0.063-0.289-0.063-0.64 0-1.117-0.011-1.437-0.031 0.359 0.297 0.574 0.574 0.637 0.832l0.355 1.504c1-0.148 1.918-0.351 2.75-0.609z" inkscape:connector-curvature="0"/>
      <path id="path164" style="fill-rule:evenodd;fill:#455210" d="m18.016 6.444 0.894 0.895c0.746-0.641 1.16-1.387 1.246-2.239 0.086-0.578 0.055-0.992-0.094-1.25-0.214 0.579-0.449 1.004-0.703 1.282-0.171 0.191-0.375 0.308-0.609 0.351-0.301 0.024-0.535 0.043-0.703 0.067l-0.031 0.894z" inkscape:connector-curvature="0"/>
      <path id="path166" style="fill-rule:evenodd;fill:#455210" d="m25.375 4.909c0.875-0.148 1.246-0.715 1.117-1.695-0.062-0.024-0.168-0.012-0.32 0.031-0.149 0.043-0.266 0.051-0.352 0.031-0.168-0.043-0.277-0.074-0.32-0.097-0.082 0-0.191 0.042-0.316 0.128-0.172 0.149-0.321 0.235-0.45 0.258-0.129 0.02-0.3-0.023-0.511-0.129-0.215-0.086-0.375-0.117-0.481-0.097 0.063 0.386 0.106 0.652 0.129 0.8 0.168 0.258 0.254 0.461 0.254 0.61l1.25 0.16z" inkscape:connector-curvature="0"/>
      <path id="path168" style="fill-rule:evenodd;fill:#455210" d="m28.574 3.468 0.383 0.382c0.383-0.043 0.824-0.285 1.313-0.734 0.535-0.492 0.789-0.961 0.769-1.41-0.32 0.301-0.715 0.504-1.184 0.609-0.472 0.106-0.781 0.16-0.929 0.16-0.278-0.086-0.492-0.105-0.641-0.062-0.062 0.66 0.035 1.012 0.289 1.055z" inkscape:connector-curvature="0"/>
      <path id="path170" style="fill-rule:evenodd;fill:#455210" d="m34.238 1.132-0.031-0.161c-0.191 0.02-0.344 0.043-0.449 0.063-0.149 0.043-0.266 0.141-0.352 0.289-0.129 0.215-0.129 0.481 0 0.801h0.832c0.149-0.086 0.332-0.301 0.543-0.641 0.18-0.32 0.336-0.539 0.465-0.656-0.101 0.07-0.246 0.141-0.434 0.207-0.277 0.109-0.468 0.141-0.574 0.098z" inkscape:connector-curvature="0"/>
      <path id="path172" style="fill-rule:evenodd;fill:#c8de5a" d="m11.84 5.901-0.195-0.16c-0.083 0.02-0.192 0-0.317-0.066-0.152-0.082-0.246-0.125-0.289-0.125-0.769-0.11-1.09 0.007-0.961 0.351 0.234 0.043 0.535 0.051 0.895 0.031 0.195 0 0.48-0.011 0.867-0.031z" inkscape:connector-curvature="0"/>
      <path id="path174" style="fill-rule:evenodd;fill:#c8de5a" d="m11.262 5.292-0.063-0.098c-0.109-0.082-0.289-0.148-0.543-0.191-0.277-0.043-0.472-0.074-0.578-0.094-0.574-0.086-1.043-0.043-1.406 0.125-0.043 0.172 0.051 0.258 0.285 0.258 0.129 0.019 0.301 0.019 0.512 0h1.793z" inkscape:connector-curvature="0"/>
      <path id="path176" style="fill-rule:evenodd;fill:#c8de5a" d="m10.43 4.651-0.512-0.64c-0.617-0.106-1.141-0.192-1.566-0.254-0.813-0.129-1.207-0.012-1.184 0.351 0.02 0.278 0.148 0.438 0.383 0.481 0.148 0.019 0.371 0.011 0.672-0.032 0.488 0 1.226 0.032 2.207 0.094z" inkscape:connector-curvature="0"/>
      <path id="path178" style="fill-rule:evenodd;fill:#c8de5a" d="m9.086 3.468 0.449-0.45c-0.66-0.168-1.461-0.222-2.402-0.16-0.149-0.019-0.254-0.019-0.321 0-0.124 0-0.167 0.067-0.124 0.196 0.019 0.082 0.203 0.148 0.542 0.191 0.192 0.043 0.395 0.074 0.61 0.094 0.703 0.043 1.117 0.086 1.246 0.129z" inkscape:connector-curvature="0"/>
      <path id="path180" style="fill-rule:evenodd;fill:#c8de5a" d="m10.43 3.018 0.226-0.093c0-0.129 0.008-0.426 0.032-0.899-0.043-0.082-0.11-0.148-0.192-0.191-0.129-0.043-0.226-0.031-0.289 0.031-0.129 0.129-0.141 0.32-0.031 0.578 0.148 0.297 0.234 0.492 0.254 0.574z" inkscape:connector-curvature="0"/>
      <path id="path182" style="fill-rule:evenodd;fill:#c8de5a" d="m11.488 3.659 0.285 0.992c0.235-1.129 0.332-1.91 0.289-2.336-0.363-0.062-0.566 0.055-0.609 0.352 0.024 0.406 0.035 0.738 0.035 0.992z" inkscape:connector-curvature="0"/>
      <path id="path184" style="fill-rule:evenodd;fill:#c8de5a" d="m12.223 4.651 0.672-0.254c0.468-0.664 0.691-1.258 0.671-1.793-0.425-0.105-0.777 0.086-1.054 0.575-0.215 0.429-0.313 0.917-0.289 1.472z" inkscape:connector-curvature="0"/>
      <path id="path186" style="fill-rule:evenodd;fill:#c8de5a" d="m13.277 5.1 0.289 0.352c0.235-0.106 0.332-0.406 0.289-0.895-0.148-0.043-0.289-0.011-0.417 0.094-0.149 0.129-0.204 0.278-0.161 0.449z" inkscape:connector-curvature="0"/>
      <path id="path188" style="fill-rule:evenodd;fill:#c8de5a" d="m5.215 4.651c-0.215-0.129-0.492-0.203-0.832-0.222-0.406-0.024-0.621 0.085-0.641 0.32-0.043 0.469 0.309 0.734 1.055 0.801 0.152 0.019 0.351 0.039 0.609 0.062 0.215 0.043 0.406 0.129 0.574 0.254l0.676 0.77-0.16-1.086c-0.172-0.043-0.387-0.184-0.641-0.418-0.3-0.258-0.511-0.414-0.64-0.481z" inkscape:connector-curvature="0"/>
      <path id="path190" style="fill-rule:evenodd;fill:#c8de5a" d="m3.168 5.55 0.285-0.356c-0.254-0.019-0.457-0.039-0.605-0.062-0.301 0-0.493 0.054-0.578 0.16 0.085 0.105 0.226 0.16 0.418 0.16 0.234 0 0.394 0.031 0.48 0.098z" inkscape:connector-curvature="0"/>
      <path id="path192" style="fill-rule:evenodd;fill:#c8de5a" d="m17.664 4.3-0.226-0.383c-0.403-0.406-0.747-0.578-1.024-0.512-0.062 0.168-0.012 0.297 0.16 0.383l0.418 0.129 0.672 0.383z" inkscape:connector-curvature="0"/>
      <path id="path194" style="fill-rule:evenodd;fill:#c8de5a" d="m19.23 3.917-0.16-0.61c-0.191-0.296-0.351-0.492-0.48-0.574-0.149-0.152-0.352-0.234-0.61-0.258-0.382 0-0.585 0.055-0.605 0.161 0.172 0.234 0.469 0.46 0.895 0.671 0.492 0.278 0.812 0.481 0.96 0.61z" inkscape:connector-curvature="0"/>
      <path id="path196" style="fill-rule:evenodd;fill:#c8de5a" d="m26.43 2.315 0.738-0.64c-0.727 0.043-1.324 0.246-1.793 0.609l-0.383 0.352c-0.109 0.148-0.152 0.343-0.129 0.578 0.235 0.019 0.438-0.024 0.606-0.129 0.578-0.387 0.898-0.641 0.961-0.77z" inkscape:connector-curvature="0"/>
      <path id="path198" style="fill-rule:evenodd;fill:#c8de5a" d="m27.453 2.124c-0.32-0.063-0.543 0-0.672 0.191 0.129 0.149 0.332 0.16 0.61 0.031 0.148-0.082 0.351-0.21 0.605-0.382l-0.543 0.16z" inkscape:connector-curvature="0"/>
      <path id="path200" style="fill-rule:evenodd;fill:#c8de5a" d="m29.566 2.124 0.575-1.09c-0.235 0-0.446 0.055-0.637 0.16-0.238 0.129-0.344 0.32-0.32 0.578 0 0.321 0.125 0.438 0.382 0.352z" inkscape:connector-curvature="0"/>
      <path id="path202" style="fill-rule:evenodd;fill:#c8de5a" d="m30.43 1.866 0.769-0.383-0.031-0.254c-0.195-0.023-0.395 0.02-0.609 0.125-0.258 0.129-0.301 0.301-0.129 0.512z" inkscape:connector-curvature="0"/>
      <path id="path204" style="fill-rule:evenodd;fill:#586818" d="m20.543 8.011c0.383 0.214 0.586 0.492 0.605 0.832 0 0.535-0.457 0.906-1.375 1.121-0.468 0.062-0.839 0.129-1.117 0.191-0.515 0.109-0.844 0.234-0.992 0.383-0.172 0.195-0.184 0.473-0.035 0.832 0.129 0.32 0.312 0.578 0.547 0.769 0.554 0.45 1.203 0.512 1.949 0.192 0.555-0.235 1.109-0.649 1.664-1.246 0.363-0.387 0.438-1.035 0.227-1.953-0.086-0.407-0.215-0.703-0.387-0.895-0.043-0.086-0.168-0.215-0.383-0.387-0.172-0.148-0.277-0.277-0.32-0.382l-1.375 0.128c0.168 0.086 0.5 0.223 0.992 0.415z" inkscape:connector-curvature="0"/>
      <path id="path206" style="fill-rule:evenodd;fill:#586818" d="m26.492 7.819c0.172 0.555 0.258 0.961 0.258 1.215-0.02 0.406-0.258 0.684-0.703 0.832-0.621 0.109-1.109 0.203-1.473 0.289-0.683 0.149-1.035 0.375-1.054 0.672-0.067 1.023 0.5 1.578 1.695 1.664 0.363 0.023 0.808-0.02 1.344-0.129 0.574-0.105 1.011-0.234 1.312-0.383 0.34-0.191 0.672-0.554 0.992-1.086 0.297-0.535 0.426-0.984 0.383-1.343-0.062-0.43-0.246-0.832-0.543-1.219-0.195-0.235-0.523-0.531-0.992-0.895-0.344-0.363-0.609-0.64-0.801-0.832-0.363-0.449-0.64-0.683-0.832-0.703l-3.68 1.246c0.469 0.067 1.172 0.032 2.114-0.093 1.129-0.153 1.789 0.105 1.98 0.765z" inkscape:connector-curvature="0"/>
      <path id="path208" style="fill-rule:evenodd;fill:#586818" d="m13.375 20.268c0.641-0.32 1.078-0.98 1.313-1.984 0.148-0.727 0.234-1.164 0.253-1.313 0.063-0.449 0.043-0.886-0.062-1.312-0.043-0.148-0.289-0.906-0.738-2.27-0.043-0.152-0.161-0.64-0.352-1.472-0.191-0.77-0.371-1.164-0.543-1.184l-1.152 0.383c-0.063 0.148-0.055 0.383 0.031 0.703 0.129 0.363 0.203 0.621 0.227 0.77 0.039 0.34 0.031 0.777-0.036 1.312-0.168 1.363-0.488 2.602-0.957 3.711-0.3 0.574-0.492 1.012-0.578 1.313-0.172 0.531-0.129 0.98 0.129 1.343 0.426 0.598 1.25 0.598 2.465 0z" inkscape:connector-curvature="0"/>
      <path id="path210" style="fill-rule:evenodd;fill:#586818" d="m33.918 3.276-0.223-0.031c-0.277 0.512-0.16 1 0.352 1.473 0.531 0.468 1.055 0.574 1.566 0.316 0.024-0.34-0.168-0.711-0.574-1.117-0.387-0.406-0.758-0.621-1.121-0.641z" inkscape:connector-curvature="0"/>
      <path id="path212" style="fill-rule:evenodd;fill:#586818" d="m36.094 3.085c0.086-0.149 0.258-0.344 0.511-0.578 0.192-0.235 0.266-0.469 0.223-0.703-0.703 0.105-1.148 0.511-1.344 1.214l0.61 0.067z" inkscape:connector-curvature="0"/>
      <path id="path214" style="fill-rule:evenodd;fill:#586818" d="m38.27 2.796v0.418c0.214 0.871 0.578 1.148 1.089 0.832-0.066-0.239-0.226-0.461-0.48-0.676-0.32-0.254-0.524-0.445-0.609-0.574z" inkscape:connector-curvature="0"/>
      <path id="path216" style="fill-rule:evenodd;fill:#455210" d="m13.598 15.37c-0.192-1.387-0.512-2.59-0.961-3.613-0.211-0.512-0.414-0.887-0.606-1.121-0.301-0.129-0.597-0.247-0.898-0.352-0.574-0.234-0.821-0.289-0.735-0.16 1.813 2.558 2.114 5.301 0.895 8.222-0.211 0.493-0.871 1.7-1.984 3.618-0.766 1.343-1.086 2.156-0.957 2.433 0.468 0.957 1.418 0.715 2.847-0.738 0.895-0.918 1.567-2.102 2.016-3.551 0.469-1.558 0.597-3.137 0.383-4.738z" inkscape:connector-curvature="0"/>
      <path id="path218" style="fill-rule:evenodd;fill:#455210" d="m4.094 15.788c-0.684 0.726-1.055 1.289-1.121 1.695-0.086 0.469 0.086 0.887 0.511 1.25 0.493 0.426 1.141 0.543 1.954 0.352 0.917-0.215 2.039-1.016 3.359-2.403 1.344-1.386 2.164-2.601 2.465-3.648 0.277-0.871 0.289-1.684 0.031-2.43-0.129-0.383-0.289-0.683-0.481-0.898-0.062-0.277-0.265-0.414-0.605-0.414-0.344 0-0.504 0.16-0.48 0.48 0.043 0.383-0.301 1.043-1.024 1.985-0.769 1.023-1.547 1.757-2.336 2.207-0.812 0.468-1.57 1.078-2.273 1.824z" inkscape:connector-curvature="0"/>
      <path id="path220" style="fill-rule:evenodd;fill:#455210" d="m16.383 15.757c0.105 0.703 0.449 1.16 1.023 1.375 0.684 0.234 1.461 0.234 2.336 0 1.004-0.278 1.813-0.801 2.434-1.567 0.617-0.789 0.797-1.824 0.543-3.105-0.235-1.172-0.715-2.164-1.442-2.977-0.554-0.597-1.492-1.023-2.816-1.281l-1.824-0.191c1.965 0.855 3.234 1.793 3.808 2.816 0.45 0.812 0.469 1.441 0.067 1.891-0.215 0.211-0.789 0.468-1.731 0.765-1.023 0.321-1.664 0.567-1.918 0.738-0.449 0.317-0.609 0.833-0.48 1.536z" inkscape:connector-curvature="0"/>
      <path id="path222" style="fill-rule:evenodd;fill:#c8de5a" d="m15.551 13.675c0-0.321-0.074-0.766-0.223-1.344-0.043-0.703-0.14-1.375-0.289-2.016-0.258-1.023-0.586-1.492-0.992-1.406l-0.32 0.445c-0.149 0.258-0.172 0.641-0.063 1.153 0.02 0.109 0.125 0.492 0.316 1.152 0.215 0.641 0.418 1.109 0.61 1.41 0.277 0.574 0.48 0.895 0.609 0.957 0.192 0.11 0.297 0.129 0.321 0.067 0.019-0.043 0.031-0.184 0.031-0.418z" inkscape:connector-curvature="0"/>
      <path id="path224" style="fill-rule:evenodd;fill:#455210" d="m26.301 5.995-1.024-0.063c0.344 0.063 0.481 0.524 0.418 1.375l-1.058 0.641 0.16 0.734-0.895 0.036-0.129 2.078c-0.043 0.875 0.235 1.375 0.832 1.504 0.301 0.086 0.598 0.074 0.899-0.032l1.375-1.504c0.703-0.789 0.926-1.718 0.672-2.785-0.215-0.937-0.629-1.597-1.25-1.984z" inkscape:connector-curvature="0"/>
      <path id="path226" style="fill-rule:evenodd;fill:#455210" d="m28.637 4.874-0.926 0.32c-0.215 0.215-0.023 0.629 0.574 1.25 0.492 0.469 0.906 0.801 1.25 0.992 0.469 0.254 1.098 0.34 1.887 0.254 0.129-0.019 0.492-0.086 1.09-0.191 0.554-0.129 0.851-0.254 0.894-0.383-0.191-0.148-0.468-0.32-0.832-0.512-0.426-0.234-0.715-0.406-0.863-0.511-0.149-0.086-0.375-0.278-0.672-0.579-0.277-0.253-0.512-0.437-0.703-0.543-0.387-0.21-0.953-0.246-1.699-0.097z" inkscape:connector-curvature="0"/>
      <path id="path228" style="fill-rule:evenodd;fill:#c8de5a" d="m37.438 1.964c-0.809 0.215-1.204 0.609-1.184 1.183l0.512-0.031c0.086 0.191 0.332 0.191 0.738 0 0-0.062 0.039-0.117 0.125-0.16l0.48-0.192 0.641-0.418 0.031-0.062 0.512-0.258c-0.488-0.277-1.109-0.297-1.855-0.062z" inkscape:connector-curvature="0"/>
      <path id="path230" style="fill-rule:evenodd;fill:#c8de5a" d="m39.391 2.925 0.543 0.129 0.449-0.098c0.469-0.215 0.683-0.5 0.64-0.863l-0.738 0.351c-0.234 0.172-0.531 0.332-0.894 0.481z" inkscape:connector-curvature="0"/>
      <g id="g232">
        <g id="g234">
          <g id="g240">
            <path id="path248" style="fill-rule:evenodd;fill:url(#linearGradient242)" d="m32.383 3.245c-6.102 1.516-10.508 2.578-13.215 3.199-1.625 0.363-4.086 0.652-7.395 0.863-3.73 0.258-5.671 0.395-5.824 0.418-0.832 0.125-1.726 0.211-2.687 0.254l-1.215 0.032c-0.363 0.535-0.535 0.972-0.512 1.312 0 0.172-0.066 0.395-0.191 0.672-0.129 0.258-0.172 0.461-0.129 0.609 0.086 0.407 0.277 0.969 0.574 1.696 0.086 0.171 0.215 0.308 0.387 0.418 0.191 0.125 0.328 0.242 0.414 0.351 0.191 0.235 0.351 0.36 0.48 0.383l3.489-1.344c2.773-1.004 5.281-1.707 7.519-2.113 2.176-0.383 5.578-1.352 10.207-2.91 2.41-0.813 5.219-1.774 8.418-2.883 2.027-0.598 4.414-0.914 7.168-0.957 1.387-0.043 2.559-0.012 3.52 0.094-1.325-0.403-3.063-0.618-5.215-0.641-2.176-0.019-4.11 0.16-5.793 0.547z" inkscape:connector-curvature="0"/>
          </g>
        </g>
      </g>
      <g id="g250">
        <g id="g252">
          <g id="g258">
            <path id="path266" style="fill-rule:evenodd;fill:url(#linearGradient260)" d="m13.918 15.565c-0.191-1.453-0.523-2.699-0.992-3.746-0.211-0.531-0.414-0.918-0.606-1.152-0.3-0.149-0.597-0.278-0.898-0.383-0.598-0.234-0.852-0.289-0.766-0.16 0.981 1.43 1.524 2.945 1.629 4.543 0.086 1.344-0.148 2.668-0.703 3.969-0.211 0.511-0.875 1.761-1.984 3.746-0.789 1.406-1.11 2.25-0.961 2.527 0.492 1 1.453 0.746 2.883-0.77 0.894-0.937 1.566-2.164 2.015-3.679 0.488-1.602 0.617-3.231 0.383-4.895z" inkscape:connector-curvature="0"/>
          </g>
        </g>
      </g>
      <g id="g268">
        <g id="g270">
          <g id="g276">
            <path id="path284" style="fill-rule:evenodd;fill:url(#linearGradient278)" d="m4.254 15.948c-0.684 0.746-1.055 1.344-1.121 1.793-0.086 0.488 0.086 0.926 0.512 1.313 0.492 0.425 1.164 0.542 2.015 0.351 0.918-0.234 2.051-1.059 3.395-2.465 1.363-1.429 2.195-2.687 2.496-3.777 0.277-0.918 0.277-1.77 0-2.559-0.129-0.383-0.289-0.683-0.481-0.898-0.066-0.297-0.265-0.445-0.609-0.445-0.363 0-0.531 0.171-0.512 0.511 0.043 0.383-0.297 1.067-1.023 2.047-0.77 1.047-1.547 1.805-2.336 2.274-0.832 0.488-1.61 1.109-2.336 1.855z" inkscape:connector-curvature="0"/>
          </g>
        </g>
      </g>
      <g id="g286">
        <g id="g288">
          <g id="g294">
            <path id="path302" style="fill-rule:evenodd;fill:url(#linearGradient296)" d="m16.734 15.979c0.129 0.746 0.493 1.227 1.086 1.442 0.684 0.254 1.473 0.254 2.371 0 1-0.258 1.813-0.789 2.43-1.602 0.641-0.808 0.82-1.887 0.543-3.23-0.234-1.219-0.723-2.243-1.469-3.075-0.554-0.617-1.504-1.066-2.847-1.343l-1.86-0.223c1.985 0.895 3.278 1.887 3.875 2.977 0.446 0.808 0.469 1.449 0.063 1.918-0.192 0.234-0.77 0.503-1.727 0.8-1.066 0.34-1.73 0.598-1.984 0.77-0.449 0.32-0.61 0.84-0.481 1.566z" inkscape:connector-curvature="0"/>
          </g>
        </g>
      </g>
      <g id="g304">
        <g id="g306">
          <g id="g312">
            <path id="path320" style="fill-rule:evenodd;fill:url(#linearGradient314)" d="m15.871 14.253c0.02-0.024 0.031-0.16 0.031-0.418 0-0.321-0.074-0.789-0.222-1.406-0.278-2.52-0.727-3.704-1.344-3.555l-0.289 0.48c-0.149 0.278-0.172 0.672-0.067 1.184 0.024 0.152 0.129 0.547 0.321 1.187 0.195 0.637 0.394 1.129 0.609 1.469 0.301 0.578 0.512 0.91 0.641 0.992 0.191 0.11 0.297 0.129 0.32 0.067z" inkscape:connector-curvature="0"/>
          </g>
        </g>
      </g>
      <g id="g322">
        <g id="g324">
          <g id="g330">
            <path id="path338" style="fill-rule:evenodd;fill:url(#linearGradient332)" d="m25.117 7.948 0.16 0.77h-0.894l-0.129 2.175c-0.043 0.895 0.234 1.418 0.832 1.567 0.297 0.062 0.609 0.043 0.93-0.063l1.375-1.539c0.703-0.746 0.929-1.707 0.671-2.879-0.214-0.961-0.64-1.64-1.281-2.047-0.254-0.023-0.488-0.043-0.703-0.066-0.449-0.043-0.555-0.043-0.32 0 0.344 0.043 0.48 0.516 0.418 1.41l-1.059 0.672z" inkscape:connector-curvature="0"/>
          </g>
        </g>
      </g>
      <g id="g340">
        <g id="g342">
          <g id="g348">
            <path id="path356" style="fill-rule:evenodd;fill:url(#linearGradient350)" d="m29.184 4.78-0.961 0.32c-0.215 0.211-0.012 0.641 0.609 1.282 0.469 0.468 0.883 0.82 1.246 1.054 0.535 0.297 1.172 0.383 1.922 0.254 1.258-0.105 1.93-0.297 2.016-0.574-0.192-0.172-0.469-0.352-0.832-0.543-0.43-0.234-0.715-0.406-0.864-0.512-0.597-0.578-1.078-0.972-1.441-1.187-0.387-0.211-0.949-0.242-1.695-0.094z" inkscape:connector-curvature="0"/>
          </g>
        </g>
      </g>
      <g id="g358">
        <g id="g360">
          <g id="g366">
            <path id="path374" style="fill-rule:evenodd;fill:url(#linearGradient368)" d="m36.766 3.245-0.735-0.031c0.129 0.511 0.254 0.863 0.383 1.054 0.215 0.297 0.535 0.45 0.961 0.45 0.406 0 0.66-0.055 0.766-0.161l0.16-0.16c-0.039-0.066-0.106-0.14-0.192-0.226-0.105-0.149-0.328-0.309-0.671-0.481-0.34-0.211-0.567-0.363-0.672-0.445z" inkscape:connector-curvature="0"/>
          </g>
        </g>
      </g>
      <g id="g376">
        <g id="g378">
          <g id="g384">
            <path id="path392" style="fill-rule:evenodd;fill:url(#linearGradient386)" d="m37.406 2.987c0.149 0.258 0.567 0.172 1.25-0.254 0.832-0.554 1.266-0.832 1.309-0.832-0.445-0.301-1.067-0.344-1.856-0.129-0.832 0.254-1.238 0.672-1.214 1.246l0.511-0.031z" inkscape:connector-curvature="0"/>
          </g>
        </g>
      </g>
      <g id="g394">
        <g id="g396">
          <g id="g402">
            <path id="path410" style="fill-rule:evenodd;fill:url(#linearGradient404)" d="m39.742 2.987-1.375-0.191c0 0.234 0.321 0.468 0.961 0.703 0.68 0.234 1.067 0.512 1.149 0.832 0.195 0.023 0.343-0.051 0.449-0.223 0.109-0.148 0.109-0.308 0-0.48-0.063-0.106-0.246-0.223-0.543-0.352-0.363-0.148-0.578-0.246-0.641-0.289z" inkscape:connector-curvature="0"/>
          </g>
        </g>
      </g>
      <g id="g412">
        <g id="g414">
          <g id="g420">
            <path id="path428" style="fill-rule:evenodd;fill:url(#linearGradient422)" d="m40.766 2.956c0.277-0.043 0.535-0.18 0.769-0.418 0.235-0.274 0.289-0.543 0.16-0.797-0.277 0.02-0.621 0.18-1.023 0.48-0.406 0.297-0.738 0.458-0.992 0.477l1.086 0.258z" inkscape:connector-curvature="0"/>
          </g>
        </g>
      </g>
      <path id="path430" style="fill-rule:evenodd;fill:#c8de5a" d="m41.406 2.893c0.875-0.043 1.739-0.043 2.594 0 0-0.195-0.055-0.332-0.16-0.418-0.11-0.043-0.258-0.043-0.449 0-0.258 0.063-0.407 0.098-0.45 0.098l-0.062-0.129c-0.707 0-1.195 0.149-1.473 0.449z" inkscape:connector-curvature="0"/>
      <g id="g432">
        <g id="g434">
          <g id="g440">
            <path id="path448" style="fill-rule:evenodd;fill:url(#linearGradient442)" d="m43.039 2.956c0.129-0.277 0.063-0.512-0.191-0.703-0.086-0.067-0.27-0.067-0.547 0-0.211 0.062-0.395 0.136-0.543 0.222-0.149 0.129-0.235 0.301-0.254 0.512-0.043 0.192-0.012 0.383 0.094 0.578 0.214 0.36 0.629 0.438 1.25 0.223 0.019-0.149-0.024-0.266-0.129-0.352-0.102-0.062-0.219-0.074-0.352-0.031l0.094-0.035c0.277-0.02 0.469-0.156 0.578-0.414z" inkscape:connector-curvature="0"/>
          </g>
        </g>
      </g>
      <g id="g450">
        <g id="g452">
          <g id="g458">
            <path id="path466" style="fill-rule:evenodd;fill:url(#linearGradient460)" d="m42.078 3.886c0.043 0.359 0.375 0.554 0.992 0.574 0.618 0.043 0.844-0.106 0.672-0.449 0.043 0 0.352 0.035 0.93 0.097 0.062-0.129 0.051-0.234-0.035-0.32 0.492 0.043 0.781 0.055 0.867 0.031 0.359-0.019 0.543-0.172 0.543-0.449-0.024-0.277-0.203-0.402-0.543-0.383-0.43 0.086-0.707 0.141-0.832 0.16 0.105-0.406 0.082-0.66-0.067-0.765-0.105-0.067-0.253-0.078-0.445-0.036-0.215 0.067-0.363 0.11-0.449 0.129l-0.066-0.16c-0.938 0-1.512 0.258-1.727 0.77l0.16 0.801z" inkscape:connector-curvature="0"/>
          </g>
        </g>
      </g>
      <path id="path468" style="fill-rule:evenodd;fill:#805740" d="m43.84 4.557c0.019-0.043-0.012-0.226-0.098-0.546 0-0.043-0.086-0.192-0.254-0.446-0.129-0.152-0.312-0.277-0.547-0.386-0.277-0.125-0.488-0.223-0.64-0.286l-0.254 0.125c0.105 0.067 0.211 0.235 0.32 0.512 0.172 0.32 0.297 0.524 0.383 0.609 0.148 0.235 0.301 0.395 0.449 0.481 0.086 0.043 0.192 0.062 0.321 0.062 0.168-0.019 0.277-0.062 0.32-0.125z" inkscape:connector-curvature="0"/>
      <path id="path470" style="fill-rule:evenodd;fill:#805740" d="m42.207 2.858 0.672-0.125c0.297-0.066 0.629-0.215 0.992-0.449 0.234-0.172 0.352-0.289 0.352-0.352 0.062-0.277-0.106-0.382-0.512-0.32-0.234 0.043-0.492 0.246-0.77 0.609-0.273 0.379-0.519 0.594-0.734 0.637z" inkscape:connector-curvature="0"/>
      <path id="path472" style="fill-rule:evenodd;fill:#805740" d="m44.16 3.147-0.64-0.129 0.414 0.547c0.148 0.235 0.3 0.403 0.449 0.512 0.254 0.254 0.469 0.32 0.64 0.191 0.168-0.129 0.106-0.343-0.191-0.64-0.258-0.235-0.48-0.395-0.672-0.481z" inkscape:connector-curvature="0"/>
      <path id="path474" style="fill-rule:evenodd;fill:#805740" d="m44.512 2.858-0.289 0.129c0.277 0.086 0.437 0.129 0.48 0.129l0.352-0.062c0.086-0.024 0.203-0.055 0.351-0.098 0.129-0.043 0.203-0.129 0.223-0.258 0.043-0.234-0.117-0.309-0.481-0.223-0.339 0.106-0.554 0.235-0.636 0.383z" inkscape:connector-curvature="0"/>
      <path id="path476" style="fill-rule:evenodd;fill:#805740" d="m45.98 3.436-0.988-0.191 0.477 0.574c0.343 0.215 0.672 0.309 0.992 0.289 0.258-0.062 0.32-0.215 0.195-0.449-0.109-0.234-0.332-0.309-0.676-0.223z" inkscape:connector-curvature="0"/>
      <path id="path478" style="fill-rule:evenodd;fill:#60402f" d="m46.367 3.565-0.031-0.195c-0.641-0.149-1.078-0.168-1.313-0.063 0 0.106 0.086 0.215 0.254 0.321 0.129 0.086 0.246 0.136 0.352 0.16 0.129 0.043 0.269 0.031 0.418-0.031 0.086-0.024 0.203-0.067 0.351-0.129l-0.031-0.063z" inkscape:connector-curvature="0"/>
      <path id="path480" style="fill-rule:evenodd;fill:#60402f" d="m44.062 3.37 0.735 0.418c-0.149-0.344-0.328-0.543-0.543-0.609l-0.609-0.192-0.125 0.067c-0.024 0.082 0.042 0.148 0.191 0.191 0.086 0.043 0.203 0.082 0.351 0.125z" inkscape:connector-curvature="0"/>
      <path id="path482" style="fill-rule:evenodd;fill:#60402f" d="m45.184 2.538-0.161 0.16c-0.343 0.043-0.589 0.098-0.738 0.16-0.148 0.086-0.265 0.153-0.351 0.196l-0.289 0.093c0.257 0.106 0.523 0.086 0.8-0.062 0.469-0.235 0.715-0.418 0.739-0.547z" inkscape:connector-curvature="0"/>
      <path id="path484" style="fill-rule:evenodd;fill:#60402f" d="m43.645 1.866v-0.285c-0.149 0.043-0.286 0.148-0.415 0.32-0.148 0.192-0.265 0.328-0.351 0.414-0.149 0.129-0.258 0.223-0.32 0.289-0.149 0.149-0.18 0.289-0.098 0.414 0.277-0.019 0.523-0.179 0.738-0.48 0.278-0.359 0.426-0.586 0.446-0.672z" inkscape:connector-curvature="0"/>
      <path id="path486" style="fill-rule:evenodd;fill:#60402f" d="m42.719 3.054-0.418-0.036c0.043 0.215 0.215 0.407 0.511 0.578 0.301 0.172 0.547 0.192 0.739 0.063-0.063-0.148-0.18-0.297-0.352-0.445-0.215-0.172-0.375-0.227-0.48-0.16z" inkscape:connector-curvature="0"/>
      <path id="path488" style="fill-rule:evenodd;fill:#c98a69" d="m44.094 1.995-0.098-0.129c-0.211 0.109-0.351 0.203-0.414 0.289-0.172 0.172-0.246 0.301-0.223 0.383 0.063-0.039 0.211-0.117 0.446-0.223 0.215-0.129 0.312-0.234 0.289-0.32z" inkscape:connector-curvature="0"/>
      <path id="path490" style="fill-rule:evenodd;fill:#c98a69" d="m43.711 4.3-0.191-0.352c-0.172 0.043-0.27 0.074-0.29 0.098-0.062 0.039-0.074 0.136-0.031 0.285 0.063 0.172 0.172 0.258 0.321 0.258 0.148 0.019 0.21-0.075 0.191-0.289z" inkscape:connector-curvature="0"/>
      <path id="path492" style="fill-rule:evenodd;fill:#c98a69" d="m45.055 4.171-0.192-0.321c-0.023 0-0.129 0.024-0.32 0.067 0.019 0.191 0.074 0.32 0.16 0.383 0.106 0.086 0.223 0.043 0.352-0.129z" inkscape:connector-curvature="0"/>
      <path id="path494" style="fill-rule:evenodd;fill:#c98a69" d="m46.527 4.011 0.032-0.192c-0.043-0.043-0.137-0.019-0.289 0.067l0.066 0.285c0.191 0 0.254-0.051 0.191-0.16z" inkscape:connector-curvature="0"/>
      <path id="path496" style="fill-rule:evenodd;fill:#c98a69" d="m44.285 3.054-0.223-0.129c-0.085-0.149-0.3-0.172-0.64-0.067 0.043 0.344 0.16 0.504 0.351 0.481 0.086-0.02 0.172-0.075 0.258-0.16 0.106-0.083 0.192-0.125 0.254-0.125z" inkscape:connector-curvature="0"/>
      <path id="path498" style="fill-rule:evenodd;fill:#455210" d="m13.375 19.245c0.598-1.262 0.777-2.484 0.543-3.68-0.34-1.879-0.684-3.136-1.023-3.777l-0.481 0.191c0.406 0.664 0.715 1.535 0.926 2.625 0.406 2.133 0.109 4.203-0.895 6.207l0.93-1.566z" inkscape:connector-curvature="0"/>
      <path id="path500" style="fill-rule:evenodd;fill:#455210" d="m15.168 9.964-0.512-0.543c0.125 0.574 0.192 1.011 0.192 1.312 0 0.02-0.055 0.192-0.16 0.512-0.086 0.254-0.086 0.426 0 0.512 0.191-0.469 0.371-0.703 0.542-0.703 0.086 0.488 0.172 0.839 0.258 1.054 0.02-0.043 0-0.258-0.066-0.64-0.149-0.575-0.234-1.079-0.254-1.504z" inkscape:connector-curvature="0"/>
      <path id="path502" style="fill-rule:evenodd;fill:#455210" d="m30.109 6.733c0-0.066-0.043-0.246-0.129-0.547-0.062-0.254-0.039-0.394 0.067-0.414 0.043-0.023 0.203 0.106 0.48 0.383 0.512 0.301 1 0.449 1.473 0.449-0.043-0.043-0.418-0.258-1.121-0.64-0.535-0.278-0.801-0.555-0.801-0.832 0.172-0.024 0.344-0.086 0.512-0.192-0.617 0.211-0.938 0.18-0.961-0.097l-0.414-0.125c0.234 0.554 0.394 0.968 0.48 1.246 0.063 0.191 0.117 0.34 0.16 0.449 0.063 0.168 0.149 0.277 0.254 0.32z" inkscape:connector-curvature="0"/>
      <path id="path504" style="fill-rule:evenodd;fill:#455210" d="m36.797 3.214-0.192 0.191c0.043 0.191 0.118 0.359 0.227 0.512 0.148 0.191 0.297 0.246 0.445 0.16-0.277-0.258-0.437-0.547-0.48-0.863z" inkscape:connector-curvature="0"/>
      <path id="path506" style="fill-rule:evenodd;fill:#455210" d="m37.469 3.214c0.066-0.196 0.363-0.442 0.898-0.739-0.406 0.063-0.695 0.106-0.863 0.129-0.301 0.063-0.512 0.235-0.641 0.512l0.606 0.098z" inkscape:connector-curvature="0"/>
      <path id="path508" style="fill-rule:evenodd;fill:#455210" d="m25.918 10.667 0.672-0.481c0.492-0.425 0.832-0.882 1.023-1.375 0.215-0.492 0.246-0.98 0.098-1.472-0.066-0.254-0.16-0.512-0.289-0.766 0.105 0.254 0.129 0.648 0.066 1.184-0.129 1.086-0.652 2.058-1.57 2.91z" inkscape:connector-curvature="0"/>
      <path id="path510" style="fill-rule:evenodd;fill:#455210" d="m19.84 15.53c2.281-0.445 3.371-1.426 3.262-2.941-0.043-0.746-0.321-1.453-0.832-2.114 0.554 0.813 0.738 1.696 0.542 2.657-0.124 0.574-0.66 1.152-1.597 1.726l-1.375 0.672z" inkscape:connector-curvature="0"/>
      <g id="g512">
        <g id="g514">
          <g id="g520">
            <path id="path528" style="fill-rule:evenodd;fill:url(#linearGradient522)" d="m15.328 8.749c-0.152-0.684-0.738-1.102-1.762-1.25-0.703-0.106-1.398-0.074-2.078 0.097-0.086 0.02-0.984 0.051-2.691 0.094-1.621 0.043-2.848 0.184-3.68 0.418-0.894 0.254-1.277 0.766-1.152 1.535 0.363 0.961 0.621 1.696 0.769 2.207 0.235 0.77 0.789 1.196 1.664 1.282 0.895 0.086 2.391-0.161 4.481-0.735 1.875-0.511 3.168-1.144 3.871-1.89 0.535-0.555 0.727-1.141 0.578-1.758z" inkscape:connector-curvature="0"/>
          </g>
        </g>
      </g>
      <path id="path530" style="fill-rule:evenodd;fill:#455210" d="m8.062 10.284h1.153c0.937-0.043 1.801-0.141 2.59-0.289 1.261-0.254 2.433-0.672 3.523-1.246-0.516-0.235-2.933 0.277-7.266 1.535z" inkscape:connector-curvature="0"/>
      <path id="path532" style="fill-rule:evenodd;fill:#c8de5a" d="m7.582 12.011c0 0.343 0.18 0.511 0.543 0.511 0.512-0.039 0.918-0.222 1.219-0.543l0.254-0.449c0-0.019 0.023-0.16 0.066-0.414 0.039-0.191 0.082-0.309 0.125-0.352l-0.16-0.066c-0.277 0.109-0.488 0.172-0.637 0.195l-0.289 0.063c-0.258 0.086-0.492 0.223-0.703 0.414-0.301 0.301-0.438 0.516-0.418 0.641z" inkscape:connector-curvature="0"/>
      <path id="path534" style="fill-rule:evenodd;fill:#cae15b" d="m11.613 10.925-0.093-0.387c-0.258 0.129-0.461 0.215-0.61 0.258l-0.414 0.222c-0.172 0.153-0.289 0.309-0.355 0.481-0.082 0.234-0.039 0.43 0.129 0.578 0.085 0.086 0.246 0.094 0.48 0.031 0.191-0.062 0.34-0.148 0.449-0.258 0.363-0.32 0.5-0.629 0.414-0.925z" inkscape:connector-curvature="0"/>
      <path id="path536" style="fill-rule:evenodd;fill:#e3fc67" d="m13.824 10.346-0.355-0.32c-0.106 0.024-0.203 0.067-0.285 0.129-0.129 0.129-0.204 0.203-0.227 0.227l-0.32 0.285c-0.317 0.406-0.317 0.609 0 0.609 0.386 0.02 0.781-0.289 1.187-0.93z" inkscape:connector-curvature="0"/>
      <path id="path538" style="fill-rule:evenodd;fill:#e3fc67" d="m15.07 9.866-0.062-0.797c-0.024 0.082-0.16 0.309-0.418 0.672-0.192 0.277-0.246 0.5-0.16 0.672 0.148 0 0.289-0.055 0.418-0.16 0.125-0.11 0.203-0.235 0.222-0.387z" inkscape:connector-curvature="0"/>
      <path id="path540" style="fill-rule:evenodd;fill:#e3fc67" d="m14.812 8.46-0.124-0.321c-0.239-0.277-0.524-0.363-0.868-0.253-0.254 0.039-0.328 0.136-0.222 0.285 0.148 0.148 0.343 0.269 0.574 0.351 0.301 0.11 0.516 0.086 0.64-0.062z" inkscape:connector-curvature="0"/>
      <path id="path542" style="fill-rule:evenodd;fill:#e3fc67" d="m12.957 8.589-0.383-0.289c-0.105-0.086-0.277-0.129-0.512-0.129-0.257-0.02-0.437 0.023-0.542 0.129-0.086 0.086-0.098 0.183-0.032 0.289 0.063 0.105 0.149 0.179 0.254 0.222 0.258 0.106 0.492 0.16 0.703 0.16 0.301 0 0.469-0.128 0.512-0.382z" inkscape:connector-curvature="0"/>
      <path id="path544" style="fill-rule:evenodd;fill:#cae15b" d="m10.973 8.874-0.321-0.285c-0.277-0.301-0.543-0.461-0.797-0.481l-0.355 0.031c-0.34 0.063-0.438 0.258-0.285 0.579 0.105 0.191 0.488 0.382 1.152 0.574 0.406 0.129 0.606-0.012 0.606-0.418z" inkscape:connector-curvature="0"/>
      <path id="path546" style="fill-rule:evenodd;fill:#c8de5a" d="m9.148 9.706-0.285-0.766c-0.129-0.426-0.48-0.597-1.058-0.511-0.317 0.042-0.555 0.117-0.703 0.222l-0.446 0.352c0.082 0.277 0.235 0.461 0.446 0.547 0.086 0.039 0.343 0.105 0.769 0.191 0.383 0.063 0.809 0.051 1.277-0.035z" inkscape:connector-curvature="0"/>
      <path id="path548" style="fill-rule:evenodd;fill:#c8de5a" d="m6.078 16.077c0.086 0.019 0.223 0.008 0.418-0.031 0.192-0.067 0.316-0.078 0.383-0.035-0.234 0.3-0.34 0.503-0.32 0.609 0.148-0.02 0.437-0.172 0.863-0.449l1.055-0.672c0.343-0.254 0.558-0.426 0.64-0.512l0.578-0.48c0.063-0.086 0.192-0.223 0.383-0.414 0.149-0.192 0.234-0.364 0.258-0.512l0.16-0.832c-0.086 0.148-0.258 0.285-0.516 0.414-0.316 0.129-0.531 0.226-0.636 0.289l-0.867 0.383c-0.383 0.148-0.586 0.269-0.606 0.351-0.023 0.172 0.117 0.289 0.414 0.352-0.105 0.086-0.265 0.152-0.48 0.195-0.278 0.063-0.446 0.106-0.512 0.125l-0.574 0.258c-0.278 0.105-0.469 0.223-0.578 0.352-0.278 0.32-0.297 0.523-0.063 0.609z" inkscape:connector-curvature="0"/>
      <path id="path550" style="fill-rule:evenodd;fill:#c8de5a" d="m5.824 17.229 0.285-0.226c-0.382 0.023-0.726 0.066-1.023 0.129-0.617 0.129-0.82 0.289-0.609 0.48 0.043 0.043 0.226 0.02 0.546-0.062 0.106-0.024 0.372-0.129 0.801-0.321z" inkscape:connector-curvature="0"/>
      <path id="path552" style="fill-rule:evenodd;fill:#c8de5a" d="m12.445 20.3c0.149-0.278 0.309-0.438 0.481-0.481l0.32-1.055c0.086-0.234 0.137-0.554 0.16-0.96 0.02-0.211 0.032-0.543 0.032-0.993 0.042-0.254 0.054-0.468 0.031-0.64-0.086-0.489-0.18-0.875-0.285-1.153-0.11 0.11-0.141 0.301-0.098 0.578 0.086 0.278 0.129 0.469 0.129 0.575-0.067 0.406-0.106 0.695-0.129 0.863-0.02 0.195-0.191 0.535-0.512 1.027-0.234 0.297-0.297 0.532-0.191 0.703h0.129c-0.641 0.407-0.875 0.821-0.707 1.247l0.129-0.032c0.109 0.149-0.032 0.555-0.414 1.215-0.301 0.684-0.547 1.188-0.739 1.504 0.129-0.019 0.375-0.297 0.739-0.832l0.574-0.895c0.086-0.128 0.203-0.351 0.351-0.671z" inkscape:connector-curvature="0"/>
      <path id="path554" style="fill-rule:evenodd;fill:#c8de5a" d="m15.359 12.397-0.48-0.738c0.191 1.344 0.406 1.934 0.641 1.762l-0.098-0.418-0.063-0.606z" inkscape:connector-curvature="0"/>
      <path id="path556" style="fill-rule:evenodd;fill:#c8de5a" d="m21.727 14.315 0.16-0.449c-0.149-0.062-0.481-0.043-0.992 0.066-0.215 0.02-0.375 0.043-0.481 0.063-0.234 0.066-0.34 0.16-0.32 0.289 0.043 0.234 0.289 0.32 0.738 0.254 0.234-0.039 0.531-0.117 0.895-0.223z" inkscape:connector-curvature="0"/>
      <path id="path558" style="fill-rule:evenodd;fill:#c8de5a" d="m22.559 13.003-0.223-0.223c-0.109-0.043-0.289-0.012-0.547 0.094-0.254 0.086-0.371 0.195-0.351 0.32 0 0.11 0.054 0.152 0.16 0.129 0.066 0 0.16-0.019 0.289-0.062 0.043-0.024 0.172-0.043 0.383-0.067 0.191-0.039 0.289-0.105 0.289-0.191z" inkscape:connector-curvature="0"/>
      <path id="path560" style="fill-rule:evenodd;fill:#c8de5a" d="m22.398 11.85-0.097-0.222c-0.383 0.105-0.5 0.234-0.352 0.383 0.043 0.043 0.129 0.043 0.258 0 0.125-0.02 0.191-0.075 0.191-0.161z" inkscape:connector-curvature="0"/>
      <path id="path562" style="fill-rule:evenodd;fill:#c8de5a" d="m21.598 16.108c0.234-0.023 0.394-0.129 0.48-0.32 0.043-0.106 0.098-0.301 0.16-0.574l-0.129-0.321c-0.168 0.235-0.297 0.469-0.382 0.703-0.129 0.278-0.172 0.45-0.129 0.512z" inkscape:connector-curvature="0"/>
      <path id="path564" style="fill-rule:evenodd;fill:#c8de5a" d="m20.895 15.819-0.192 0.192c-0.406 0.257-0.621 0.394-0.641 0.418-0.234 0.21-0.308 0.425-0.226 0.64 0.301-0.023 0.535-0.172 0.707-0.449 0.086-0.149 0.203-0.418 0.352-0.801z" inkscape:connector-curvature="0"/>
      <path id="path566" style="fill-rule:evenodd;fill:#c8de5a" d="m26.047 9.932-0.258-0.097c-0.383-0.278-0.758-0.266-1.117 0.031l0.125 0.578c0.726-0.062 1.144-0.234 1.25-0.512z" inkscape:connector-curvature="0"/>
      <path id="path568" style="fill-rule:evenodd;fill:#c8de5a" d="m26.812 9.003-0.124-0.285c-0.129-0.215-0.29-0.301-0.481-0.258-0.215 0.086-0.387 0.148-0.512 0.191 0.043 0.34 0.106 0.555 0.192 0.641 0.129 0.086 0.297 0.097 0.511 0.031 0.215-0.062 0.352-0.168 0.414-0.32z" inkscape:connector-curvature="0"/>
      <path id="path570" style="fill-rule:evenodd;fill:#c8de5a" d="m27.328 7.499-0.195-0.801c-0.254 0.066-0.403 0.301-0.445 0.707-0.043 0.402 0.031 0.703 0.222 0.895 0.172-0.106 0.289-0.215 0.352-0.321 0.043-0.086 0.066-0.246 0.066-0.48z" inkscape:connector-curvature="0"/>
      <path id="path572" style="fill-rule:evenodd;fill:#c8de5a" d="m28.191 9.292-0.257-0.832c-0.297 0.492-0.321 1.078-0.063 1.761 0.168-0.128 0.277-0.437 0.32-0.929z" inkscape:connector-curvature="0"/>
      <path id="path574" style="fill-rule:evenodd;fill:#c8de5a" d="m31.102 4.971c-0.106 0-0.247 0.063-0.414 0.192 0.062 0.086 0.136 0.215 0.222 0.387 0.106 0.105 0.309 0.234 0.61 0.382l0.863 0.672c0.062 0.02 0.16 0.094 0.289 0.223 0.125 0.109 0.234 0.16 0.32 0.16 0.02-0.129-0.035-0.246-0.16-0.351-0.172-0.106-0.289-0.18-0.355-0.223l-1.375-1.442z" inkscape:connector-curvature="0"/>
      <path id="path576" style="fill-rule:evenodd;fill:#c8de5a" d="m31.68 6.827-0.77 0.031c-0.191 0.043-0.203 0.16-0.031 0.356 0.148 0.168 0.297 0.273 0.449 0.316 0.254 0.066 0.555 0.012 0.895-0.16-0.106-0.149-0.289-0.328-0.543-0.543z" inkscape:connector-curvature="0"/>
    </g>
  </g>
<metadata><rdf:RDF><cc:Work><dc:format>image/svg+xml</dc:format><dc:type rdf:resource="http://purl.org/dc/dcmitype/StillImage"/><cc:license rdf:resource="http://creativecommons.org/licenses/publicdomain/"/><dc:publisher><cc:Agent rdf:about="http://openclipart.org/"><dc:title>Openclipart</dc:title></cc:Agent></dc:publisher></cc:Work><cc:License rdf:about="http://creativecommons.org/licenses/publicdomain/"><cc:permits rdf:resource="http://creativecommons.org/ns#Reproduction"/><cc:permits rdf:resource="http://creativecommons.org/ns#Distribution"/><cc:permits rdf:resource="http://creativecommons.org/ns#DerivativeWorks"/></cc:License></rdf:RDF></metadata></svg>
