<?xml version="1.0" encoding="UTF-8" standalone="no"?>
<!-- Created with Inkscape (http://www.inkscape.org/) -->
<svg xmlns:inkscape="http://www.inkscape.org/namespaces/inkscape" xmlns:rdf="http://www.w3.org/1999/02/22-rdf-syntax-ns#" xmlns="http://www.w3.org/2000/svg" xmlns:xlink="http://www.w3.org/1999/xlink" xmlns:ns1="http://sozi.baierouge.fr" xmlns:cc="http://creativecommons.org/ns#" xmlns:sodipodi="http://sodipodi.sourceforge.net/DTD/sodipodi-0.dtd" xmlns:dc="http://purl.org/dc/elements/1.1/" id="svg2" xml:space="preserve" viewBox="0 0 57.16 23.289" version="1.1" inkscape:version="0.91 r13725">
  <defs id="defs6">
    <clipPath id="clipPath28">
      <path id="path30" d="m13 10.631h15v8h-15v-8z" inkscape:connector-curvature="0"/>
    </clipPath>
    <mask id="mask32">
      <g id="g34">
        <g id="g36" clip-path="url(#clipPath28)">
          <path id="path38" style="fill:#000000;fill-opacity:.14840" d="m13 10.631h15v8h-15v-8z" inkscape:connector-curvature="0"/>
        </g>
      </g>
    </mask>
    <clipPath id="clipPath44">
      <path id="path46" d="m13 10.631h15v8h-15v-8z" inkscape:connector-curvature="0"/>
    </clipPath>
    <clipPath id="clipPath48">
      <path id="path50" d="m13 11h15v8h-15v-8z" inkscape:connector-curvature="0"/>
    </clipPath>
    <clipPath id="clipPath72">
      <path id="path74" d="m13 10.631h15v8h-15v-8z" inkscape:connector-curvature="0"/>
    </clipPath>
    <mask id="mask76">
      <g id="g78">
        <g id="g80" clip-path="url(#clipPath72)">
          <path id="path82" style="fill:#000000;fill-opacity:.19140" d="m13 10.631h15v8h-15v-8z" inkscape:connector-curvature="0"/>
        </g>
      </g>
    </mask>
    <clipPath id="clipPath88">
      <path id="path90" d="m13 10.631h15v8h-15v-8z" inkscape:connector-curvature="0"/>
    </clipPath>
    <clipPath id="clipPath92">
      <path id="path94" d="m13 11h15v8h-15v-8z" inkscape:connector-curvature="0"/>
    </clipPath>
    <clipPath id="clipPath116">
      <path id="path118" d="m23 14.631h4v3h-4v-3z" inkscape:connector-curvature="0"/>
    </clipPath>
    <mask id="mask120">
      <g id="g122">
        <g id="g124" clip-path="url(#clipPath116)">
          <path id="path126" style="fill:#000000;fill-opacity:.19920" d="m23 14.631h4v3h-4v-3z" inkscape:connector-curvature="0"/>
        </g>
      </g>
    </mask>
    <clipPath id="clipPath132">
      <path id="path134" d="m23 14.631h4v3h-4v-3z" inkscape:connector-curvature="0"/>
    </clipPath>
    <clipPath id="clipPath136">
      <path id="path138" d="m23 15h4v3h-4v-3z" inkscape:connector-curvature="0"/>
    </clipPath>
    <clipPath id="clipPath160">
      <path id="path162" d="m16 13.631h7v4h-7v-4z" inkscape:connector-curvature="0"/>
    </clipPath>
    <mask id="mask164">
      <g id="g166">
        <g id="g168" clip-path="url(#clipPath160)">
          <path id="path170" style="fill:#000000;fill-opacity:.19920" d="m16 13.631h7v4h-7v-4z" inkscape:connector-curvature="0"/>
        </g>
      </g>
    </mask>
    <clipPath id="clipPath176">
      <path id="path178" d="m16 13.631h7v4h-7v-4z" inkscape:connector-curvature="0"/>
    </clipPath>
    <clipPath id="clipPath180">
      <path id="path182" d="m16 14h7v4h-7v-4z" inkscape:connector-curvature="0"/>
    </clipPath>
    <clipPath id="clipPath222">
      <path id="path224" d="m0 5.6315h18v10h-18v-10z" inkscape:connector-curvature="0"/>
    </clipPath>
    <mask id="mask226">
      <g id="g228">
        <g id="g230" clip-path="url(#clipPath222)">
          <path id="path232" style="fill:#000000;fill-opacity:.14840" d="m0 5.6315h18v10h-18v-10z" inkscape:connector-curvature="0"/>
        </g>
      </g>
    </mask>
    <clipPath id="clipPath238">
      <path id="path240" d="m0 5.6315h18v10h-18v-10z" inkscape:connector-curvature="0"/>
    </clipPath>
    <clipPath id="clipPath242">
      <path id="path244" d="m0 6h18v10h-18v-10z" inkscape:connector-curvature="0"/>
    </clipPath>
    <clipPath id="clipPath266">
      <path id="path268" d="m0 5.6315h18v10h-18v-10z" inkscape:connector-curvature="0"/>
    </clipPath>
    <mask id="mask270">
      <g id="g272">
        <g id="g274" clip-path="url(#clipPath266)">
          <path id="path276" style="fill:#000000;fill-opacity:.19140" d="m0 5.6315h18v10h-18v-10z" inkscape:connector-curvature="0"/>
        </g>
      </g>
    </mask>
    <clipPath id="clipPath282">
      <path id="path284" d="m0 5.6315h18v10h-18v-10z" inkscape:connector-curvature="0"/>
    </clipPath>
    <clipPath id="clipPath286">
      <path id="path288" d="m0 6h18v10h-18v-10z" inkscape:connector-curvature="0"/>
    </clipPath>
    <clipPath id="clipPath310">
      <path id="path312" d="m1 9.6315h5v5h-5v-5z" inkscape:connector-curvature="0"/>
    </clipPath>
    <mask id="mask314">
      <g id="g316">
        <g id="g318" clip-path="url(#clipPath310)">
          <path id="path320" style="fill:#000000;fill-opacity:.19920" d="m1 9.6315h5v5h-5v-5z" inkscape:connector-curvature="0"/>
        </g>
      </g>
    </mask>
    <clipPath id="clipPath326">
      <path id="path328" d="m1 9.6315h5v5h-5v-5z" inkscape:connector-curvature="0"/>
    </clipPath>
    <clipPath id="clipPath330">
      <path id="path332" d="m1 10h5v5h-5v-5z" inkscape:connector-curvature="0"/>
    </clipPath>
    <clipPath id="clipPath354">
      <path id="path356" d="m6 9.6315h8v5h-8v-5z" inkscape:connector-curvature="0"/>
    </clipPath>
    <mask id="mask358">
      <g id="g360">
        <g id="g362" clip-path="url(#clipPath354)">
          <path id="path364" style="fill:#000000;fill-opacity:.19920" d="m6 9.6315h8v5h-8v-5z" inkscape:connector-curvature="0"/>
        </g>
      </g>
    </mask>
    <clipPath id="clipPath370">
      <path id="path372" d="m6 9.6315h8v5h-8v-5z" inkscape:connector-curvature="0"/>
    </clipPath>
    <clipPath id="clipPath374">
      <path id="path376" d="m6 10h8v5h-8v-5z" inkscape:connector-curvature="0"/>
    </clipPath>
    <clipPath id="clipPath416">
      <path id="path418" d="m29 3.6315h17v10h-17v-10z" inkscape:connector-curvature="0"/>
    </clipPath>
    <mask id="mask420">
      <g id="g422">
        <g id="g424" clip-path="url(#clipPath416)">
          <path id="path426" style="fill:#000000;fill-opacity:.14840" d="m29 3.6315h17v10h-17v-10z" inkscape:connector-curvature="0"/>
        </g>
      </g>
    </mask>
    <clipPath id="clipPath432">
      <path id="path434" d="m29 3.6315h17v10h-17v-10z" inkscape:connector-curvature="0"/>
    </clipPath>
    <clipPath id="clipPath436">
      <path id="path438" d="m29 4h17v10h-17v-10z" inkscape:connector-curvature="0"/>
    </clipPath>
    <clipPath id="clipPath460">
      <path id="path462" d="m29 3.6315h17v10h-17v-10z" inkscape:connector-curvature="0"/>
    </clipPath>
    <mask id="mask464">
      <g id="g466">
        <g id="g468" clip-path="url(#clipPath460)">
          <path id="path470" style="fill:#000000;fill-opacity:.19140" d="m29 3.6315h17v10h-17v-10z" inkscape:connector-curvature="0"/>
        </g>
      </g>
    </mask>
    <clipPath id="clipPath476">
      <path id="path478" d="m29 3.6315h17v10h-17v-10z" inkscape:connector-curvature="0"/>
    </clipPath>
    <clipPath id="clipPath480">
      <path id="path482" d="m29 4h17v10h-17v-10z" inkscape:connector-curvature="0"/>
    </clipPath>
    <clipPath id="clipPath504">
      <path id="path506" d="m40 7.6315h5v4h-5v-4z" inkscape:connector-curvature="0"/>
    </clipPath>
    <mask id="mask508">
      <g id="g510">
        <g id="g512" clip-path="url(#clipPath504)">
          <path id="path514" style="fill:#000000;fill-opacity:.19920" d="m40 7.6315h5v4h-5v-4z" inkscape:connector-curvature="0"/>
        </g>
      </g>
    </mask>
    <clipPath id="clipPath520">
      <path id="path522" d="m40 7.6315h5v4h-5v-4z" inkscape:connector-curvature="0"/>
    </clipPath>
    <clipPath id="clipPath524">
      <path id="path526" d="m40 8h5v4h-5v-4z" inkscape:connector-curvature="0"/>
    </clipPath>
    <clipPath id="clipPath548">
      <path id="path550" d="m33 6.6315h7v6h-7v-6z" inkscape:connector-curvature="0"/>
    </clipPath>
    <mask id="mask552">
      <g id="g554">
        <g id="g556" clip-path="url(#clipPath548)">
          <path id="path558" style="fill:#000000;fill-opacity:.19920" d="m33 6.6315h7v6h-7v-6z" inkscape:connector-curvature="0"/>
        </g>
      </g>
    </mask>
    <clipPath id="clipPath564">
      <path id="path566" d="m33 6.6315h7v6h-7v-6z" inkscape:connector-curvature="0"/>
    </clipPath>
    <clipPath id="clipPath568">
      <path id="path570" d="m33 7h7v6h-7v-6z" inkscape:connector-curvature="0"/>
    </clipPath>
    <clipPath id="clipPath610">
      <path id="path612" d="m9-0.36853h20v12h-20v-12z" inkscape:connector-curvature="0"/>
    </clipPath>
    <mask id="mask614">
      <g id="g616">
        <g id="g618" clip-path="url(#clipPath610)">
          <path id="path620" style="fill:#000000;fill-opacity:.14840" d="m9-0.36853h20v12h-20v-12z" inkscape:connector-curvature="0"/>
        </g>
      </g>
    </mask>
    <clipPath id="clipPath626">
      <path id="path628" d="m9-0.36853h20v12h-20v-12z" inkscape:connector-curvature="0"/>
    </clipPath>
    <clipPath id="clipPath630">
      <path id="path632" d="m9 0h20v12h-20v-12z" inkscape:connector-curvature="0"/>
    </clipPath>
    <clipPath id="clipPath654">
      <path id="path656" d="m9-0.36853h20v12h-20v-12z" inkscape:connector-curvature="0"/>
    </clipPath>
    <mask id="mask658">
      <g id="g660">
        <g id="g662" clip-path="url(#clipPath654)">
          <path id="path664" style="fill:#000000;fill-opacity:.19140" d="m9-0.36853h20v12h-20v-12z" inkscape:connector-curvature="0"/>
        </g>
      </g>
    </mask>
    <clipPath id="clipPath670">
      <path id="path672" d="m9-0.36853h20v12h-20v-12z" inkscape:connector-curvature="0"/>
    </clipPath>
    <clipPath id="clipPath674">
      <path id="path676" d="m9 0h20v12h-20v-12z" inkscape:connector-curvature="0"/>
    </clipPath>
    <clipPath id="clipPath698">
      <path id="path700" d="m11 4.6315h5v4h-5v-4z" inkscape:connector-curvature="0"/>
    </clipPath>
    <mask id="mask702">
      <g id="g704">
        <g id="g706" clip-path="url(#clipPath698)">
          <path id="path708" style="fill:#000000;fill-opacity:.19920" d="m11 4.6315h5v4h-5v-4z" inkscape:connector-curvature="0"/>
        </g>
      </g>
    </mask>
    <clipPath id="clipPath714">
      <path id="path716" d="m11 4.6315h5v4h-5v-4z" inkscape:connector-curvature="0"/>
    </clipPath>
    <clipPath id="clipPath718">
      <path id="path720" d="m11 5h5v4h-5v-4z" inkscape:connector-curvature="0"/>
    </clipPath>
    <clipPath id="clipPath742">
      <path id="path744" d="m16 3.6315h8v6h-8v-6z" inkscape:connector-curvature="0"/>
    </clipPath>
    <mask id="mask746">
      <g id="g748">
        <g id="g750" clip-path="url(#clipPath742)">
          <path id="path752" style="fill:#000000;fill-opacity:.19920" d="m16 3.6315h8v6h-8v-6z" inkscape:connector-curvature="0"/>
        </g>
      </g>
    </mask>
    <clipPath id="clipPath758">
      <path id="path760" d="m16 3.6315h8v6h-8v-6z" inkscape:connector-curvature="0"/>
    </clipPath>
    <clipPath id="clipPath762">
      <path id="path764" d="m16 4h8v6h-8v-6z" inkscape:connector-curvature="0"/>
    </clipPath>
  </defs>
  <g id="g10" transform="matrix(1.25 0 0 -1.25 0 23.289)">
    <g id="g12">
      <path id="path14" style="fill-rule:evenodd;fill:#8f592f" d="m19.738 11.44c-3.449 0.09-5.554 1.188-6.316 3.293s0.137 3.383 2.687 3.832c0.762 0.133 1.504-0.066 2.219-0.605 0.402-0.313 0.918-0.762 1.547-1.344 0.355-0.313 0.871-0.426 1.543-0.336 0.672 0.047 1.187 0.223 1.547 0.539 1.254 1.207 2.555 1.367 3.898 0.469 1.211-0.715 1.231-1.86 0.067-3.426-1.301-1.75-3.696-2.555-7.192-2.422z" inkscape:connector-curvature="0"/>
      <path id="path16" style="fill-rule:evenodd;fill:#bd8a3e" d="m24.176 17.624c0.937 0.359 1.836 0.246 2.687-0.336 0.582-0.27 0.828-0.852 0.739-1.746-0.313 1.386-1.457 2.082-3.426 2.082z" inkscape:connector-curvature="0"/>
      <path id="path18" style="fill-rule:evenodd;fill:#bd8a3e" d="m22.629 11.577c1.254 0.582 1.816 1.457 1.68 2.621-0.18 1.433-0.829 2.195-1.95 2.281 0.227 0.047 0.426 0.16 0.606 0.34l0.269 0.266c1.434-0.266 2.328-0.895 2.688-1.879 0.269-0.629 0.246-1.414-0.067-2.352-0.761-0.586-1.835-1.008-3.226-1.277z" inkscape:connector-curvature="0"/>
      <path id="path20" style="fill-rule:evenodd;fill:#bd8a3e" d="m17.59 14.799c-0.36-0.582-0.918-0.984-1.68-1.207-0.719-0.179-1.344-0.156-1.883 0.067-0.449 0.582-0.718 1.187-0.804 1.812 0.355-0.312 0.847-0.355 1.476-0.133 0.625 0.227 1.031 0.629 1.211 1.211 0.18 0.45 0.199 0.829 0.067 1.141-0.137 0.313-0.383 0.516-0.739 0.606l0.871 0.269c0.45 0.09 0.809 0.066 1.075-0.066 0.586-0.407 0.921-0.965 1.007-1.68 0.094-0.676-0.109-1.348-0.601-2.02z" inkscape:connector-curvature="0"/>
      <path id="path22" style="fill-rule:evenodd;fill:#bd8a3e" d="m16.379 12.046c0.762-0.18 1.391-0.18 1.883 0 0.539 0.222 1.097 0.761 1.679 1.613 0.493 0.719 0.403 1.746-0.269 3.094l0.203-0.137c0.133-0.133 0.469-0.246 1.008-0.336 0.762-0.852 1.055-1.793 0.875-2.82-0.27-1.168-0.965-1.84-2.086-2.02-1.074 0-2.172 0.203-3.293 0.606z" inkscape:connector-curvature="0"/>
      <g id="g24">
        <g id="g40" mask="url(#mask32)">
          <g id="g52">
            <g id="g54" clip-path="url(#clipPath44)">
              <g id="g56" transform="translate(0 -.36853)">
                <g id="g60">
                  <g id="g62" clip-path="url(#clipPath48)">
                    <g id="g64">
                      <path id="path66" style="fill-rule:evenodd;fill:#000000" d="m26.867 14.16c-1.301-1.699-3.676-2.484-7.125-2.351-3.449 0.089-5.554 1.187-6.316 3.293-0.762 2.105 0.136 3.382 2.687 3.832 0.809 0.132 1.547-0.067 2.219-0.606l-0.203 0.067c-1.387 0.359-2.262-0.09-2.621-1.344-0.356-1.254 0.023-2.239 1.144-2.957 1.121-0.672 2.688-1.008 4.703-1.008 2.063 0.047 3.586 0.473 4.571 1.277 0.625 0.492 1.051 1.075 1.277 1.746 0.133 0.582 0.067 1.079-0.203 1.481 1.074-0.852 1.031-1.992-0.133-3.43z" inkscape:connector-curvature="0"/>
                    </g>
                  </g>
                </g>
              </g>
            </g>
          </g>
        </g>
      </g>
      <g id="g68">
        <g id="g84" mask="url(#mask76)">
          <g id="g96">
            <g id="g98" clip-path="url(#clipPath88)">
              <g id="g100" transform="translate(0 -.36853)">
                <g id="g104">
                  <g id="g106" clip-path="url(#clipPath92)">
                    <g id="g108">
                      <path id="path110" style="fill-rule:evenodd;fill:#000000" d="m13.426 15.102c-0.762 2.105 0.136 3.382 2.687 3.832l0.407 0.066-0.071-0.066c-2.238-0.539-3.047-1.77-2.418-3.696 0.36-1.031 1.211-1.793 2.555-2.285 1.434-0.539 3.246-0.719 5.441-0.539 1.391 0.137 2.645 0.582 3.762 1.344 0.941 0.629 1.547 1.277 1.816 1.949-0.179-1.074-0.851-1.969-2.015-2.687-1.434-0.895-3.383-1.297-5.848-1.211-3.449 0.089-5.554 1.187-6.316 3.293z" inkscape:connector-curvature="0"/>
                    </g>
                  </g>
                </g>
              </g>
            </g>
          </g>
        </g>
      </g>
      <g id="g112">
        <g id="g128" mask="url(#mask120)">
          <g id="g140">
            <g id="g142" clip-path="url(#clipPath132)">
              <g id="g144" transform="translate(0 -.36853)">
                <g id="g148">
                  <g id="g150" clip-path="url(#clipPath136)">
                    <g id="g152">
                      <path id="path154" style="fill-rule:evenodd;fill:#ffffff" d="m25.039 16.781c0.09 0.313 0.27 0.535 0.539 0.672 0.313 0.09 0.582 0.043 0.805-0.137 0.269-0.265 0.359-0.601 0.269-1.007-0.09-0.403-0.425-0.739-1.007-1.008-0.625-0.223-1.235-0.266-1.817-0.133s-0.762 0.336-0.535 0.605c0.133 0.18 0.469 0.336 1.008 0.469 0.445 0.137 0.695 0.313 0.738 0.539z" inkscape:connector-curvature="0"/>
                    </g>
                  </g>
                </g>
              </g>
            </g>
          </g>
        </g>
      </g>
      <g id="g156">
        <g id="g172" mask="url(#mask164)">
          <g id="g184">
            <g id="g186" clip-path="url(#clipPath176)">
              <g id="g188" transform="translate(0 -.36853)">
                <g id="g192">
                  <g id="g194" clip-path="url(#clipPath180)">
                    <g id="g196">
                      <path id="path198" style="fill-rule:evenodd;fill:#ffffff" d="m22.23 15.355c0.086-0.269-0.089-0.515-0.539-0.738-0.535-0.269-1.277-0.336-2.218-0.203-1.387 0.227-2.282 0.629-2.688 1.211-0.265 0.492-0.246 1.008 0.07 1.543 0.223 0.359 0.512 0.516 0.872 0.473 0.269 0 0.472-0.114 0.605-0.336 0.09-0.137 0.223-0.383 0.402-0.739 0.27-0.316 0.672-0.515 1.211-0.605l1.547-0.203c0.446-0.09 0.692-0.223 0.738-0.403z" inkscape:connector-curvature="0"/>
                    </g>
                  </g>
                </g>
              </g>
            </g>
          </g>
        </g>
      </g>
      <path id="path200" style="fill-rule:evenodd;fill:#ffffff" d="m17.992 16.819c0.133-0.047 0.36-0.316 0.672-0.809 0.27-0.445 0.785-0.695 1.547-0.738 0.492-0.043 0.469-0.09-0.066-0.133-0.493-0.047-0.989 0.02-1.481 0.199-0.715 0.317-1.098 0.653-1.141 1.008-0.089 0.36 0.067 0.516 0.469 0.473z" inkscape:connector-curvature="0"/>
      <path id="path202" style="fill-rule:evenodd;fill:#ffffff" d="m25.652 16.682c0.047 0.09 0.133 0.114 0.27 0.067 0.09-0.09 0.113-0.2 0.066-0.336-0.09-0.18-0.246-0.313-0.468-0.403-0.18-0.089-0.227-0.066-0.137 0.067 0.09 0.047 0.179 0.246 0.269 0.605z" inkscape:connector-curvature="0"/>
      <path id="path204" style="fill-rule:evenodd;fill:#ffffff" d="m24.848 15.807c0.132 0.047 0.199 0.024 0.199-0.066-0.043-0.133-0.133-0.223-0.27-0.27-0.672-0.175-0.648-0.066 0.071 0.336z" inkscape:connector-curvature="0"/>
      <path id="path206" style="fill-rule:evenodd;fill:#ffffff" d="m21.152 15.135c0.176 0.047 0.266 0 0.266-0.132 0-0.09-0.09-0.133-0.266-0.133-0.539 0.09-0.539 0.179 0 0.265z" inkscape:connector-curvature="0"/>
      <path id="path208" style="fill-rule:evenodd;fill:#8f592f" d="m0.992 9.561c-1.344 1.969-1.32 3.426 0.067 4.367 1.656 1.032 3.203 0.828 4.636-0.605 0.403-0.449 1.008-0.695 1.813-0.738 0.808-0.09 1.433 0.066 1.883 0.468 0.359 0.27 0.964 0.828 1.816 1.68 0.848 0.672 1.723 0.918 2.617 0.738 3.047-0.582 4.121-2.195 3.227-4.836-0.942-2.644-3.449-4.035-7.528-4.168-4.164-0.132-7.007 0.899-8.531 3.094z" inkscape:connector-curvature="0"/>
      <path id="path210" style="fill-rule:evenodd;fill:#bd8a3e" d="m4.285 14.331c-2.328-0.09-3.672-0.985-4.031-2.688-0.137 1.074 0.133 1.836 0.805 2.285 1.031 0.672 2.105 0.805 3.226 0.403z" inkscape:connector-curvature="0"/>
      <path id="path212" style="fill-rule:evenodd;fill:#bd8a3e" d="m6.164 6.671c-1.519 0.222-2.797 0.738-3.828 1.546-0.223 0.672-0.336 1.098-0.336 1.278-0.09 0.582-0.023 1.183 0.199 1.812 0.496 1.254 1.547 2.016 3.16 2.285l0.336-0.269c0.27-0.27 0.516-0.426 0.739-0.469-1.344-0.137-2.125-1.098-2.352-2.891-0.133-1.48 0.563-2.578 2.082-3.292z" inkscape:connector-curvature="0"/>
      <path id="path214" style="fill-rule:evenodd;fill:#bd8a3e" d="m14.027 12.921c0.27-0.719 0.762-1.211 1.481-1.481 0.715-0.269 1.297-0.199 1.746 0.203-0.09-0.851-0.426-1.637-1.008-2.351-0.629-0.27-1.344-0.293-2.152-0.067-0.895 0.27-1.59 0.762-2.082 1.477-0.535 0.851-0.739 1.726-0.602 2.621 0.086 0.894 0.469 1.613 1.141 2.148 0.539 0.094 0.965 0.094 1.277 0l1.074-0.265c-0.449-0.137-0.761-0.426-0.941-0.875-0.137-0.403-0.113-0.875 0.066-1.41z" inkscape:connector-curvature="0"/>
      <path id="path216" style="fill-rule:evenodd;fill:#bd8a3e" d="m13.488 7.276c-1.207-0.539-2.508-0.809-3.894-0.809-1.301 0.18-2.106 1.032-2.422 2.555-0.266 1.301 0.09 2.484 1.078 3.563 0.535 0.089 0.914 0.246 1.141 0.468l0.203 0.203c-0.766-1.75-0.852-3.07-0.27-3.964 0.625-1.075 1.278-1.75 1.949-2.016 0.582-0.27 1.321-0.27 2.215 0z" inkscape:connector-curvature="0"/>
      <g id="g218">
        <g id="g234" mask="url(#mask226)">
          <g id="g246">
            <g id="g248" clip-path="url(#clipPath238)">
              <g id="g250" transform="translate(0 -.36853)">
                <g id="g254">
                  <g id="g256" clip-path="url(#clipPath242)">
                    <g id="g258">
                      <path id="path260" style="fill-rule:evenodd;fill:#000000" d="m13.824 15.895c3.047-0.586 4.125-2.196 3.227-4.84-0.942-2.645-3.449-4.032-7.524-4.164-4.078-0.137-6.879 0.847-8.402 2.953-1.387 1.84-1.453 3.293-0.199 4.371-0.36-0.496-0.426-1.121-0.203-1.883 0.222-0.852 0.715-1.59 1.476-2.219 1.168-0.984 2.981-1.5 5.446-1.543 2.417-0.047 4.277 0.379 5.578 1.274 1.343 0.898 1.789 2.129 1.343 3.699-0.406 1.566-1.457 2.125-3.16 1.68l-0.199-0.071c0.895 0.672 1.77 0.918 2.617 0.743z" inkscape:connector-curvature="0"/>
                    </g>
                  </g>
                </g>
              </g>
            </g>
          </g>
        </g>
      </g>
      <g id="g262">
        <g id="g278" mask="url(#mask270)">
          <g id="g290">
            <g id="g292" clip-path="url(#clipPath282)">
              <g id="g294" transform="translate(0 -.36853)">
                <g id="g298">
                  <g id="g300" clip-path="url(#clipPath286)">
                    <g id="g302">
                      <path id="path304" style="fill-rule:evenodd;fill:#000000" d="m13.461 15.926 0.336-0.031c3.047-0.586 4.121-2.196 3.226-4.84-0.941-2.645-3.449-4.032-7.523-4.164-2.914-0.137-5.219 0.379-6.922 1.543-1.344 0.898-2.129 2.039-2.351 3.425 0.355-0.847 1.074-1.679 2.148-2.484 1.344-1.031 2.824-1.613 4.434-1.746 2.601-0.227 4.75 0 6.453 0.672 1.566 0.672 2.554 1.656 2.957 2.957 0.754 2.394-0.164 3.953-2.758 4.668z" inkscape:connector-curvature="0"/>
                    </g>
                  </g>
                </g>
              </g>
            </g>
          </g>
        </g>
      </g>
      <g id="g306">
        <g id="g322" mask="url(#mask314)">
          <g id="g334">
            <g id="g336" clip-path="url(#clipPath326)">
              <g id="g338" transform="translate(0 -.36853)">
                <g id="g342">
                  <g id="g344" clip-path="url(#clipPath330)">
                    <g id="g346">
                      <path id="path348" style="fill-rule:evenodd;fill:#ffffff" d="m3.215 13.168c0.086-0.316 0.402-0.539 0.941-0.672 0.625-0.226 1.028-0.43 1.207-0.605 0.27-0.36 0.047-0.629-0.672-0.809-0.714-0.176-1.433-0.109-2.148 0.203-0.672 0.313-1.074 0.738-1.211 1.277-0.133 0.493-0.023 0.918 0.336 1.278 0.27 0.265 0.582 0.312 0.941 0.133 0.313-0.18 0.516-0.45 0.606-0.805z" inkscape:connector-curvature="0"/>
                    </g>
                  </g>
                </g>
              </g>
            </g>
          </g>
        </g>
      </g>
      <g id="g350">
        <g id="g366" mask="url(#mask358)">
          <g id="g378">
            <g id="g380" clip-path="url(#clipPath370)">
              <g id="g382" transform="translate(0 -.36853)">
                <g id="g386">
                  <g id="g388" clip-path="url(#clipPath374)">
                    <g id="g390">
                      <path id="path392" style="fill-rule:evenodd;fill:#ffffff" d="m7.219 10.371c-0.539 0.266-0.762 0.582-0.672 0.941 0.043 0.223 0.336 0.379 0.871 0.469 0.359 0.043 0.984 0.133 1.883 0.27 0.629 0.09 1.074 0.336 1.344 0.738 0.179 0.223 0.359 0.559 0.539 1.008 0.175 0.223 0.425 0.359 0.738 0.402 0.402 0.047 0.738-0.156 1.008-0.605 0.402-0.672 0.425-1.321 0.066-1.946-0.492-0.765-1.547-1.277-3.156-1.546-1.121-0.137-1.996-0.043-2.621 0.269z" inkscape:connector-curvature="0"/>
                    </g>
                  </g>
                </g>
              </g>
            </g>
          </g>
        </g>
      </g>
      <path id="path394" style="fill-rule:evenodd;fill:#ffffff" d="m11.609 13.256c0.45 0.09 0.625-0.089 0.536-0.539-0.086-0.492-0.536-0.918-1.344-1.277-0.625-0.269-1.207-0.379-1.746-0.336-0.715 0.09-0.739 0.156-0.067 0.203 0.895 0.09 1.5 0.403 1.813 0.942 0.316 0.625 0.586 0.961 0.808 1.007z" inkscape:connector-curvature="0"/>
      <path id="path396" style="fill-rule:evenodd;fill:#ffffff" d="m2.539 13.12 0.336-0.805c0.176-0.223-0.066-0.09-0.742 0.402-0.09 0.223-0.043 0.383 0.133 0.473 0.136 0.09 0.226 0.066 0.273-0.07z" inkscape:connector-curvature="0"/>
      <path id="path398" style="fill-rule:evenodd;fill:#ffffff" d="m3.477 11.979c0.402-0.223 0.582-0.359 0.539-0.402-0.09-0.09-0.246-0.09-0.469 0-0.18 0.043-0.27 0.133-0.27 0.269 0 0.176 0.067 0.223 0.2 0.133z" inkscape:connector-curvature="0"/>
      <path id="path400" style="fill-rule:evenodd;fill:#ffffff" d="m7.848 11.174c0.222-0.046 0.336-0.113 0.336-0.203 0.043-0.047-0.047-0.09-0.27-0.133-0.18 0-0.293 0.067-0.336 0.2 0 0.136 0.09 0.179 0.27 0.136z" inkscape:connector-curvature="0"/>
      <path id="path402" style="fill-rule:evenodd;fill:#8f592f" d="m44.738 11.643c1.297-0.941 1.321-2.398 0.067-4.367-1.391-2.195-3.989-3.227-7.797-3.09-3.672 0.18-5.934 1.59-6.785 4.231-0.852 2.601 0.113 4.211 2.89 4.839 0.848 0.18 1.657-0.066 2.418-0.738 0.449-0.359 0.985-0.918 1.614-1.68 0.449-0.406 1.031-0.562 1.746-0.472 0.718 0.047 1.277 0.293 1.679 0.738 1.301 1.481 2.688 1.66 4.168 0.539z" inkscape:connector-curvature="0"/>
      <path id="path404" style="fill-rule:evenodd;fill:#bd8a3e" d="m41.848 12.046c0.894 0.449 1.859 0.316 2.89-0.403 0.625-0.492 0.871-1.23 0.739-2.219-0.313 1.75-1.524 2.622-3.629 2.622z" inkscape:connector-curvature="0"/>
      <path id="path406" style="fill-rule:evenodd;fill:#bd8a3e" d="m40.102 4.452c1.386 0.719 2.015 1.816 1.878 3.293-0.222 1.75-0.937 2.687-2.148 2.82l0.738 0.539 0.27 0.27c1.476-0.27 2.441-1.051 2.89-2.352 0.223-0.629 0.29-1.211 0.2-1.746l-0.336-1.277c-0.852-0.762-2.016-1.278-3.492-1.547z" inkscape:connector-curvature="0"/>
      <path id="path408" style="fill-rule:evenodd;fill:#bd8a3e" d="m35.328 11.104c0.09-0.894-0.109-1.769-0.601-2.617-0.45-0.719-1.079-1.211-1.883-1.481-0.719-0.222-1.367-0.203-1.949 0.067-0.493 0.719-0.786 1.48-0.875 2.285 0.359-0.402 0.875-0.469 1.546-0.199 0.672 0.265 1.118 0.758 1.344 1.476 0.18 0.582 0.203 1.075 0.067 1.477-0.133 0.449-0.403 0.719-0.805 0.809 0.355 0.179 0.672 0.289 0.941 0.335 0.446 0.09 0.828 0.067 1.141-0.066 0.629-0.492 0.984-1.187 1.074-2.086z" inkscape:connector-curvature="0"/>
      <path id="path410" style="fill-rule:evenodd;fill:#bd8a3e" d="m33.449 4.991c0.805-0.27 1.453-0.27 1.949 0 0.582 0.312 1.184 1.008 1.813 2.082 0.582 0.984 0.492 2.285-0.27 3.898l0.204-0.133c0.222-0.226 0.582-0.382 1.074-0.472 0.898-1.074 1.211-2.285 0.941-3.629-0.269-1.434-0.984-2.281-2.148-2.551-1.258 0.043-2.442 0.313-3.563 0.805z" inkscape:connector-curvature="0"/>
      <g id="g412">
        <g id="g428" mask="url(#mask420)">
          <g id="g440">
            <g id="g442" clip-path="url(#clipPath432)">
              <g id="g444" transform="translate(0 -.36853)">
                <g id="g448">
                  <g id="g450" clip-path="url(#clipPath436)">
                    <g id="g452">
                      <path id="path454" style="fill-rule:evenodd;fill:#000000" d="m44.727 7.605c-1.434-2.148-4.008-3.16-7.727-3.023-3.672 0.18-5.934 1.59-6.785 4.234-0.852 2.598 0.109 4.211 2.887 4.836 0.851 0.18 1.636-0.09 2.355-0.804l-0.203 0.132c-1.524 0.45-2.488-0.109-2.891-1.679-0.359-1.567 0.067-2.821 1.278-3.762 1.254-0.898 2.98-1.32 5.175-1.277 2.192 0.043 3.829 0.582 4.903 1.613 0.672 0.625 1.121 1.367 1.343 2.215 0.18 0.765 0.114 1.39-0.199 1.883 1.164-1.075 1.117-2.532-0.136-4.368z" inkscape:connector-curvature="0"/>
                    </g>
                  </g>
                </g>
              </g>
            </g>
          </g>
        </g>
      </g>
      <g id="g456">
        <g id="g472" mask="url(#mask464)">
          <g id="g484">
            <g id="g486" clip-path="url(#clipPath476)">
              <g id="g488" transform="translate(0 -.36853)">
                <g id="g492">
                  <g id="g494" clip-path="url(#clipPath480)">
                    <g id="g496">
                      <path id="path498" style="fill-rule:evenodd;fill:#000000" d="m33.371 13.688c-2.363-0.723-3.195-2.278-2.484-4.672 0.359-1.297 1.277-2.286 2.754-2.957 1.57-0.672 3.515-0.895 5.847-0.672 1.477 0.136 2.821 0.695 4.032 1.679 1.031 0.852 1.679 1.704 1.949 2.555-0.18-1.391-0.899-2.555-2.153-3.492-1.523-1.121-3.628-1.637-6.316-1.547-3.672 0.18-5.934 1.59-6.785 4.234-0.852 2.598 0.109 4.211 2.887 4.836l0.269 0.036z" inkscape:connector-curvature="0"/>
                    </g>
                  </g>
                </g>
              </g>
            </g>
          </g>
        </g>
      </g>
      <g id="g500">
        <g id="g516" mask="url(#mask508)">
          <g id="g528">
            <g id="g530" clip-path="url(#clipPath520)">
              <g id="g532" transform="translate(0 -.36853)">
                <g id="g536">
                  <g id="g538" clip-path="url(#clipPath524)">
                    <g id="g540">
                      <path id="path542" style="fill-rule:evenodd;fill:#ffffff" d="m42.801 10.859c0.09 0.403 0.293 0.696 0.605 0.875 0.313 0.176 0.582 0.133 0.805-0.136 0.312-0.403 0.426-0.828 0.336-1.278-0.133-0.582-0.512-1.008-1.141-1.273-0.629-0.317-1.277-0.406-1.949-0.27-0.629 0.176-0.828 0.446-0.605 0.805 0.179 0.227 0.562 0.426 1.144 0.606 0.492 0.179 0.762 0.402 0.805 0.671z" inkscape:connector-curvature="0"/>
                    </g>
                  </g>
                </g>
              </g>
            </g>
          </g>
        </g>
      </g>
      <g id="g544">
        <g id="g560" mask="url(#mask552)">
          <g id="g572">
            <g id="g574" clip-path="url(#clipPath564)">
              <g id="g576" transform="translate(0 -.36853)">
                <g id="g580">
                  <g id="g582" clip-path="url(#clipPath568)">
                    <g id="g584">
                      <path id="path586" style="fill-rule:evenodd;fill:#ffffff" d="m39.672 9.109c0.09-0.359-0.11-0.695-0.606-1.007-0.582-0.313-1.367-0.379-2.351-0.2-1.477 0.223-2.418 0.739-2.82 1.543-0.36 0.629-0.36 1.278 0 1.95 0.222 0.449 0.515 0.648 0.871 0.605 0.316-0.043 0.539-0.18 0.672-0.402 0.136-0.18 0.292-0.516 0.472-1.008 0.27-0.402 0.695-0.672 1.278-0.809 0.445-0.09 1.007-0.176 1.679-0.265 0.492-0.047 0.762-0.18 0.805-0.407z" inkscape:connector-curvature="0"/>
                    </g>
                  </g>
                </g>
              </g>
            </g>
          </g>
        </g>
      </g>
      <path id="path588" style="fill-rule:evenodd;fill:#ffffff" d="m35.129 11.038c0.18-0.043 0.426-0.379 0.738-1.008 0.313-0.535 0.875-0.852 1.68-0.942 0.539-0.089 0.515-0.156-0.067-0.199-0.492-0.047-1.031 0.067-1.613 0.336-0.762 0.313-1.187 0.715-1.277 1.207-0.043 0.492 0.137 0.696 0.539 0.606z" inkscape:connector-curvature="0"/>
      <path id="path590" style="fill-rule:evenodd;fill:#ffffff" d="m43.395 10.796c0.043 0.136 0.132 0.16 0.265 0.07 0.137-0.094 0.16-0.227 0.07-0.406-0.089-0.223-0.246-0.403-0.472-0.536-0.223-0.089-0.289-0.046-0.199 0.133 0.089 0.133 0.199 0.379 0.336 0.739z" inkscape:connector-curvature="0"/>
      <path id="path592" style="fill-rule:evenodd;fill:#ffffff" d="m42.586 9.76c0.137 0.09 0.18 0.047 0.137-0.132 0-0.133-0.09-0.223-0.27-0.27-0.18-0.09-0.293-0.09-0.336 0-0.09 0.047 0.067 0.18 0.469 0.402z" inkscape:connector-curvature="0"/>
      <path id="path594" style="fill-rule:evenodd;fill:#ffffff" d="m38.555 8.956c0.179 0.043 0.269-0.024 0.269-0.203-0.047-0.133-0.156-0.18-0.336-0.133-0.179 0-0.269 0.043-0.269 0.133 0.043 0.089 0.156 0.156 0.336 0.203z" inkscape:connector-curvature="0"/>
      <path id="path596" style="fill-rule:evenodd;fill:#8f592f" d="m10.801 8.823c1.75 1.387 3.406 1.164 4.972-0.676 0.45-0.492 1.098-0.781 1.95-0.871 0.898-0.09 1.589 0.09 2.086 0.535 0.355 0.317 1.007 0.985 1.945 2.02 0.898 0.804 1.859 1.117 2.891 0.937 3.269-0.715 4.414-2.64 3.425-5.777-1.027-3.137-3.738-4.793-8.129-4.973-4.523-0.18-7.593 1.051-9.207 3.695-1.476 2.329-1.457 4.032 0.067 5.11z" inkscape:connector-curvature="0"/>
      <path id="path598" style="fill-rule:evenodd;fill:#bd8a3e" d="m14.297 9.358c-2.555-0.09-4.031-1.141-4.434-3.156-0.09 1.254 0.223 2.125 0.942 2.621 1.16 0.894 2.328 1.074 3.492 0.535z" inkscape:connector-curvature="0"/>
      <path id="path600" style="fill-rule:evenodd;fill:#bd8a3e" d="m15.438 8.483 0.335-0.336 0.875-0.605c-0.804-0.043-1.433-0.446-1.882-1.207-0.356-0.629-0.582-1.344-0.672-2.153-0.223-1.703 0.492-3 2.152-3.894-1.613 0.312-2.98 0.918-4.101 1.812-0.223 0.762-0.336 1.254-0.336 1.481-0.09 0.672-0.024 1.386 0.203 2.148 0.539 1.57 1.679 2.488 3.426 2.754z" inkscape:connector-curvature="0"/>
      <path id="path602" style="fill-rule:evenodd;fill:#bd8a3e" d="m24.645 10.768 1.074-0.402c-0.492-0.133-0.828-0.449-1.008-0.942-0.133-0.492-0.09-1.074 0.137-1.746 0.265-0.851 0.781-1.433 1.543-1.75 0.761-0.355 1.39-0.289 1.882 0.203-0.089-0.984-0.425-1.882-1.007-2.687-0.672-0.359-1.454-0.402-2.352-0.133-0.984 0.313-1.746 0.895-2.285 1.746-0.582 0.985-0.805 2.016-0.672 3.09 0.09 1.078 0.516 1.926 1.277 2.555 0.36 0.136 0.828 0.156 1.411 0.066z" inkscape:connector-curvature="0"/>
      <path id="path604" style="fill-rule:evenodd;fill:#bd8a3e" d="m24.242 0.96c-1.254-0.586-2.668-0.899-4.234-0.942-1.387 0.27-2.262 1.278-2.621 3.024-0.313 1.566 0.066 2.98 1.14 4.234 0.496 0.09 0.922 0.266 1.282 0.535l0.199 0.27c-0.762-2.106-0.875-3.672-0.336-4.703 0.715-1.301 1.457-2.106 2.219-2.418 0.582-0.27 1.367-0.27 2.351 0z" inkscape:connector-curvature="0"/>
      <g id="g606">
        <g id="g622" mask="url(#mask614)">
          <g id="g634">
            <g id="g636" clip-path="url(#clipPath626)">
              <g id="g638" transform="translate(0 -.36853)">
                <g id="g642">
                  <g id="g644" clip-path="url(#clipPath630)">
                    <g id="g646">
                      <path id="path648" style="fill-rule:evenodd;fill:#000000" d="m24.648 11.172c3.27-0.719 4.411-2.645 3.426-5.777-1.031-3.137-3.738-4.793-8.129-4.973-4.39-0.18-7.437 0.984-9.14 3.492-1.434 2.242-1.477 3.988-0.133 5.242-0.402-0.582-0.473-1.344-0.203-2.285 0.226-0.984 0.738-1.859 1.547-2.621 1.254-1.207 3.203-1.836 5.847-1.879 2.641-0.047 4.657 0.469 6.047 1.543 1.477 1.078 1.969 2.555 1.477 4.438-0.446 1.878-1.567 2.55-3.36 2.015l-0.269-0.137c0.941 0.809 1.906 1.122 2.89 0.942z" inkscape:connector-curvature="0"/>
                    </g>
                  </g>
                </g>
              </g>
            </g>
          </g>
        </g>
      </g>
      <g id="g650">
        <g id="g666" mask="url(#mask658)">
          <g id="g678">
            <g id="g680" clip-path="url(#clipPath670)">
              <g id="g682" transform="translate(0 -.36853)">
                <g id="g686">
                  <g id="g688" clip-path="url(#clipPath674)">
                    <g id="g690">
                      <path id="path692" style="fill-rule:evenodd;fill:#000000" d="m24.621 11.172c3.27-0.719 4.41-2.645 3.426-5.777-1.031-3.137-3.738-4.793-8.129-4.973-3.137-0.137-5.621 0.469-7.461 1.812-1.519 1.078-2.375 2.442-2.551 4.102 0.36-1.031 1.141-2.016 2.352-2.957 1.433-1.211 3-1.906 4.703-2.086 2.777-0.266 5.105 0.023 6.988 0.875 1.746 0.762 2.844 1.906 3.293 3.426 0.805 2.914-0.226 4.773-3.09 5.578l-0.07 0.066 0.539-0.066z" inkscape:connector-curvature="0"/>
                    </g>
                  </g>
                </g>
              </g>
            </g>
          </g>
        </g>
      </g>
      <g id="g694">
        <g id="g710" mask="url(#mask702)">
          <g id="g722">
            <g id="g724" clip-path="url(#clipPath714)">
              <g id="g726" transform="translate(0 -.36853)">
                <g id="g730">
                  <g id="g732" clip-path="url(#clipPath718)">
                    <g id="g734">
                      <path id="path736" style="fill-rule:evenodd;fill:#ffffff" d="m13.137 7.777c0.043-0.359 0.359-0.629 0.937-0.804 0.719-0.227 1.168-0.45 1.348-0.672 0.266-0.449 0.019-0.762-0.742-0.942-0.762-0.226-1.524-0.136-2.285 0.27-0.758 0.359-1.207 0.848-1.344 1.476-0.086 0.583 0.047 1.098 0.406 1.547 0.266 0.313 0.582 0.36 0.938 0.133 0.406-0.18 0.652-0.515 0.742-1.008z" inkscape:connector-curvature="0"/>
                    </g>
                  </g>
                </g>
              </g>
            </g>
          </g>
        </g>
      </g>
      <g id="g738">
        <g id="g754" mask="url(#mask746)">
          <g id="g766">
            <g id="g768" clip-path="url(#clipPath758)">
              <g id="g770" transform="translate(0 -.36853)">
                <g id="g774">
                  <g id="g776" clip-path="url(#clipPath762)">
                    <g id="g778">
                      <path id="path780" style="fill-rule:evenodd;fill:#ffffff" d="m23.695 6.137c-0.496-0.899-1.636-1.5-3.429-1.817-1.164-0.222-2.106-0.132-2.821 0.27-0.582 0.359-0.808 0.738-0.672 1.144 0.043 0.266 0.36 0.446 0.942 0.536 0.355 0.046 1.008 0.136 1.945 0.269 0.672 0.137 1.188 0.449 1.547 0.941 0.18 0.27 0.379 0.672 0.605 1.211 0.133 0.266 0.379 0.426 0.739 0.469 0.449 0.043 0.808-0.203 1.074-0.738 0.449-0.809 0.473-1.57 0.07-2.285z" inkscape:connector-curvature="0"/>
                    </g>
                  </g>
                </g>
              </g>
            </g>
          </g>
        </g>
      </g>
      <path id="path782" style="fill-rule:evenodd;fill:#ffffff" d="m22.16 8.081c0.535 0.136 0.762-0.09 0.668-0.672-0.133-0.539-0.648-1.031-1.543-1.481-0.629-0.312-1.254-0.445-1.883-0.402-0.672 0.09-0.695 0.18-0.066 0.27 0.984 0.089 1.656 0.468 2.016 1.14 0.359 0.719 0.628 1.102 0.808 1.145z" inkscape:connector-curvature="0"/>
      <path id="path784" style="fill-rule:evenodd;fill:#ffffff" d="m12.414 7.881c0.09-0.449 0.203-0.742 0.336-0.875 0.137-0.222 0.066-0.269-0.199-0.132-0.27 0.132-0.473 0.336-0.606 0.601-0.09 0.27-0.047 0.449 0.133 0.539 0.137 0.09 0.246 0.043 0.336-0.133z" inkscape:connector-curvature="0"/>
      <path id="path786" style="fill-rule:evenodd;fill:#ffffff" d="m13.422 6.604c0.402-0.269 0.582-0.449 0.539-0.539-0.09-0.043-0.246-0.023-0.473 0.066-0.176 0.047-0.265 0.161-0.265 0.336-0.047 0.137 0.023 0.18 0.199 0.137z" inkscape:connector-curvature="0"/>
      <path id="path788" style="fill-rule:evenodd;fill:#ffffff" d="m18.125 5.663c0.227-0.09 0.336-0.18 0.336-0.27 0.047-0.09-0.043-0.133-0.266-0.133-0.222-0.047-0.336 0.024-0.336 0.2-0.047 0.179 0.043 0.246 0.266 0.203z" inkscape:connector-curvature="0"/>
    </g>
  </g>
<metadata><rdf:RDF><cc:Work><dc:format>image/svg+xml</dc:format><dc:type rdf:resource="http://purl.org/dc/dcmitype/StillImage"/><cc:license rdf:resource="http://creativecommons.org/licenses/publicdomain/"/><dc:publisher><cc:Agent rdf:about="http://openclipart.org/"><dc:title>Openclipart</dc:title></cc:Agent></dc:publisher></cc:Work><cc:License rdf:about="http://creativecommons.org/licenses/publicdomain/"><cc:permits rdf:resource="http://creativecommons.org/ns#Reproduction"/><cc:permits rdf:resource="http://creativecommons.org/ns#Distribution"/><cc:permits rdf:resource="http://creativecommons.org/ns#DerivativeWorks"/></cc:License></rdf:RDF></metadata></svg>
