<svg class="svg-icon" style="width: 1em; height: 1em;vertical-align: middle;fill: currentColor;overflow: hidden;" viewBox="0 0 1024 1024" version="1.1" xmlns="http://www.w3.org/2000/svg"><path d="M926.161614 526.266818l-51.888461 205.440543c-4.227623 16.592062-19.128226 28.216232-36.247588 28.216232h-651.303694c-17.120387 0-32.12645-11.625194-36.247588-28.216232l-51.888461-205.440543c3.381893 1.902379 6.869247 4.333083 11.30779 7.397572 15.746332 11.095845 37.305262 26.208393 76.829283 26.208392s61.082951-15.112547 76.829283-26.208392c11.625194-8.137841 17.013902-11.941575 31.703585-11.941575 14.689683 0 19.972931 3.698274 31.703586 11.941575 15.746332 11.095845 37.305262 26.208393 76.829283 26.208392s61.082951-15.112547 76.829283-26.208392c11.625194-8.137841 17.013902-11.941575 31.703585-11.941575 14.689683 0 19.973955 3.698274 31.703585 11.941575 15.746332 11.095845 37.305262 26.208393 76.934743 26.208392 39.524021 0 61.082951-15.112547 76.829284-26.208392 11.625194-8.137841 17.013902-11.941575 31.703585-11.941575 14.689683 0 20.079415 3.698274 31.703585 11.941575 15.746332 11.095845 37.305262 26.208393 76.934743 26.208392 39.524021 0 61.082951-15.112547 76.829283-26.208392 4.226599-3.064489 7.713952-5.495193 11.201306-7.397572z" fill="#B27214" /><path d="M314.382965 731.812821l-50.091542-198.67778c-0.21092 0.21092-0.528325 0.317404-0.740269 0.528325-15.746332 11.095845-37.305262 26.208393-76.829283 26.208392s-61.082951-15.112547-76.829283-26.208392c-4.333083-3.064489-7.820436-5.495193-11.307789-7.397572l51.88846 205.440543c4.227623 16.592062 19.128226 28.216232 36.247588 28.216232H350.73499c-17.118339 0.107508-32.124402-11.517686-36.352025-28.109748z" fill="#995C0D" /><path d="M946.55741 491.18134v1.690434c0 14.054874-8.031356 26.736717-20.395796 33.500504-3.381893 1.902379-6.869247 4.333083-11.30779 7.397572-15.746332 11.095845-37.305262 26.208393-76.829283 26.208392s-61.188411-15.112547-76.934743-26.208392c-11.625194-8.136817-17.013902-11.941575-31.703585-11.941575s-19.973955 3.698274-31.703585 11.941575c-15.746332 11.095845-37.305262 26.208393-76.829284 26.208392-39.629481 0-61.188411-15.112547-76.934743-26.208392-11.625194-8.136817-17.013902-11.941575-31.703585-11.941575-14.689683 0-19.972931 3.698274-31.703585 11.941575-15.746332 11.095845-37.305262 26.208393-76.829283 26.208392s-61.082951-15.112547-76.829284-26.208392c-11.625194-8.136817-17.013902-11.941575-31.703585-11.941575-12.469899 0-18.177036 2.641624-26.631257 8.454221-1.584974 1.05665-3.169949 2.218759-5.072328 3.487354-15.746332 11.095845-37.305262 26.208393-76.829283 26.208392s-61.082951-15.112547-76.829283-26.208392c-4.333083-3.064489-7.820436-5.495193-11.30779-7.397572-12.364439-6.763786-20.395796-19.339146-20.395795-33.500504v-1.690434c0-29.484826 31.492665-48.295647 57.489113-34.239749 6.340922 3.381893 11.836114 7.080167 16.697522 10.46206 0.951189 0.633785 1.796919 1.268594 2.748108 1.902379 11.625194 8.136817 17.013902 11.941575 31.703585 11.941574s19.972931-3.698274 31.703585-11.941574c14.161358-9.933735 33.077639-23.249364 65.626954-25.785528 3.592814-0.317404 7.292111-0.422865 11.30779-0.422865 39.524021 0 61.082951 15.112547 76.829283 26.208393 11.625194 8.136817 17.013902 11.941575 31.703585 11.941574 14.689683 0 19.972931-3.698274 31.703585-11.941574 15.746332-11.095845 37.305262-26.208393 76.829283-26.208393s61.082951 15.112547 76.829283 26.208393c11.625194 8.136817 17.013902 11.941575 31.703586 11.941574 14.689683 0 19.973955-3.698274 31.703585-11.941574 15.746332-11.095845 37.305262-26.208393 76.829283-26.208393 39.629481 0 61.188411 15.112547 76.934743 26.208393 11.625194 8.136817 17.013902 11.941575 31.703585 11.941574s19.973955-3.698274 31.703586-11.941574c0.845729-0.633785 1.796919-1.268594 2.748108-1.902379 4.861408-3.381893 10.3566-7.080167 16.697522-10.567521 25.785528-13.950438 57.278193 4.860384 57.278193 34.34521z" fill="#E09B2D" /><path d="M872.370774 467.403651c-0.951189 0.633785-1.796919 1.268594-2.748108 1.902379-11.625194 8.136817-17.013902 11.941575-31.703585 11.941574-14.689683 0-20.079415-3.698274-31.703585-11.941574-15.746332-11.095845-37.305262-26.208393-76.934743-26.208393-39.524021 0-61.082951 15.112547-76.829284 26.208393-11.625194 8.136817-17.013902 11.941575-31.703585 11.941574s-19.973955-3.698274-31.703585-11.941574c-15.746332-11.095845-37.305262-26.208393-76.829283-26.208393s-61.082951 15.112547-76.829283 26.208393c-11.625194 8.136817-17.013902 11.941575-31.703585 11.941574-14.689683 0-19.972931-3.698274-31.703586-11.941574-15.746332-11.095845-37.305262-26.208393-76.829283-26.208393s-61.188411 15.112547-76.934743 26.208393c-11.625194 8.136817-17.013902 11.941575-31.703585 11.941574s-19.972931-3.698274-31.703585-11.941574c-0.951189-0.633785-1.796919-1.268594-2.748109-1.902379C225.612107 345.449694 359.402179 263.970947 512.109556 263.970947c153.023757-0.001024 286.708369 81.584207 360.261218 203.432704z" fill="#F7B239" /><path d="M268.623482 530.177036c-1.584974 1.05665-3.169949 2.218759-5.072328 3.487354-15.746332 11.095845-37.305262 26.208393-76.829283 26.208392s-61.082951-15.112547-76.829283-26.208392c-4.333083-3.064489-7.820436-5.495193-11.307789-7.397572-12.364439-6.763786-20.395796-19.339146-20.395796-33.500504v-1.690434c0-29.484826 31.492665-48.295647 57.489113-34.23975 6.340922 3.381893 11.836114 7.080167 16.697522 10.462061 0.951189 0.633785 1.796919 1.268594 2.748108 1.902379 11.625194 8.137841 17.013902 11.941575 31.703585 11.941574s19.972931-3.699298 31.703586-11.941574c14.161358-9.933735 33.077639-23.249364 65.626953-25.785528-10.990385 21.663366-20.92412 52.415761-15.534388 86.761994z" fill="#CC8A29" /><path d="M327.487673 447.006831c-9.19449-2.325244-19.867471-3.804758-32.23191-3.804758-39.524021 0-61.188411 15.112547-76.934743 26.208393-11.625194 8.137841-17.013902 11.941575-31.703585 11.941575-14.689683 0-19.972931-3.698274-31.703585-11.941575-0.951189-0.633785-1.796919-1.268594-2.748109-1.902379C225.718592 345.55413 359.508663 264.075384 512.21604 264.075384c27.687907 0 54.847489 2.641624 81.055882 7.820436-110.013406 21.453469-204.702321 85.811829-265.784249 175.111011z" fill="#E09B2D" /><path d="M760.456013 419.108004c-3.487353 0-7.080167-1.268594-9.933735-3.804758-18.177036-16.063737-38.044507-30.436015-58.863168-42.48305-8.666165-4.966868-17.648711-9.722815-26.631257-13.949414-7.503032-3.487353-10.779465-12.469899-7.186651-19.972931 3.487353-7.503032 12.469899-10.779465 19.973955-7.186651a417.596749 417.596749 0 0 1 28.956501 15.112548c22.615579 13.104708 44.173485 28.533636 63.830035 45.970403 6.235462 5.495193 6.763786 15.006063 1.268594 21.136065-3.170973 3.48633-7.293135 5.177788-11.414274 5.177788zM831.049834 734.138065c-1.16211 0-2.325244-0.10546-3.487353-0.422865-8.031356-1.902379-13.104708-9.933735-11.202329-18.071576l28.005311-118.677524c1.902379-8.031356 9.933735-13.104708 18.071576-11.20233 8.031356 1.902379 13.104708 9.933735 11.202329 18.071576l-28.005311 118.677525c-1.585998 6.975731-7.820436 11.625194-14.584223 11.625194z" fill="#FFFFFF" /><path d="M935.24962 444.893532c-16.485578-9.828275-36.354072-10.25114-53.262515-1.16211-1.690435 0.951189-3.381893 1.902379-4.966867 2.853568-37.410722-57.278193-88.030589-105.361895-147.423105-139.602668-65.732414-37.939047-140.870239-58.018462-217.276657-58.018462-76.300958 0-151.438783 20.079415-217.276657 58.018462-59.286032 34.239749-110.012383 82.324476-147.423105 139.497208-1.584974-0.951189-3.276433-1.902379-4.966867-2.853568-16.908442-9.088006-36.776937-8.666165-53.262515 1.16211-16.485578 9.828275-26.313853 27.159582-26.313853 46.393268v1.584974c0 17.013902 8.454221 32.866719 22.298175 42.905915l50.408946 199.734429c5.918057 23.354824 26.736717 39.629481 50.831811 39.629482h651.30267c24.095093 0 44.913754-16.274657 50.831811-39.629482l50.408946-199.734429c13.949414-10.039196 22.298175-25.890988 22.298175-42.905915v-1.584974c0.10546-19.128226-9.721791-36.459533-26.208393-46.287808zM310.049882 332.97877c61.188411-35.297423 131.148447-54.00176 202.270594-54.001759s140.976723 18.705361 202.270594 54.001759c55.270354 31.915529 102.509351 76.723823 137.382885 130.091798-4.333083 2.430704-7.608492 3.169949-13.949414 3.169949-9.933735 0-12.258979-1.584974-23.038443-9.19449-16.380117-11.51871-41.21548-28.956501-85.494425-28.956501-44.279969 0-69.114307 17.436767-85.494425 28.956501-10.779465 7.608492-13.104708 9.19449-23.038443 9.19449-9.933735 0-12.258979-1.584974-23.038444-9.19449-16.380117-11.51871-41.214456-28.956501-85.494425-28.956501s-69.114307 17.436767-85.494424 28.956501c-10.779465 7.608492-13.104708 9.19449-23.038444 9.19449s-12.258979-1.584974-23.038444-9.19449c-16.380117-11.51871-41.21548-28.956501-85.494424-28.956501s-69.114307 17.436767-85.494425 28.956501c-10.779465 7.608492-13.104708 9.19449-23.038444 9.19449-6.446382 0-9.617355-0.633785-13.949413-3.169949 34.663638-53.367975 81.901611-98.176268 137.171964-130.091798zM93.19609 491.18134c0-8.559681 4.333083-16.169197 11.730654-20.60774 7.292111-4.333083 16.169197-4.544003 23.672229-0.528325 6.763786 3.698274 12.469899 7.608492 17.965092 11.51871 12.57536 8.771626 20.81866 14.584223 40.26429 14.584222s27.687907-5.812597 40.264291-14.689682c14.900603-10.46206 33.395044-23.461308 68.268578-23.461309s53.367975 12.998224 68.268577 23.461309c12.57536 8.771626 20.81866 14.584223 40.264291 14.584222s27.687907-5.812597 40.26429-14.689683c14.900603-10.46206 33.395044-23.461308 68.268578-23.461308s53.367975 12.998224 68.268578 23.461308c12.57536 8.771626 20.81866 14.689683 40.26429 14.689683 19.444606 0 27.687907-5.812597 40.264291-14.689683 14.900603-10.46206 33.395044-23.461308 68.268578-23.461308s53.367975 12.998224 68.268578 23.461308c12.576383 8.771626 20.81866 14.689683 40.26429 14.689683 19.444606 0 27.793367-5.812597 40.264291-14.689683 5.495193-3.804758 11.095845-7.820436 17.965091-11.518709 7.503032-4.015678 16.274657-3.804758 23.672229 0.528324 7.292111 4.333083 11.730654 12.047035 11.730654 20.60774v1.584975c0 8.348761-4.861408 16.063737-12.575359 20.290335-4.121138 2.219783-8.137841 5.072328-12.681844 8.243301-14.900603 10.46206-33.395044 23.461308-68.268578 23.461308s-53.367975-12.998224-68.268578-23.461308c-12.576383-8.771626-20.81866-14.689683-40.26429-14.689683s-27.687907 5.812597-40.264291 14.689683c-14.900603 10.46206-33.395044 23.461308-68.268577 23.461308s-53.367975-12.998224-68.268578-23.461308c-12.57536-8.771626-20.81866-14.689683-40.264291-14.689683s-27.687907 5.812597-40.26429 14.689683c-14.900603 10.46206-33.395044 23.461308-68.268578 23.461308s-53.367975-12.998224-68.268578-23.461308c-12.57536-8.771626-20.81866-14.689683-40.26429-14.689683s-27.793367 5.812597-40.264291 14.689683c-14.900603 10.46206-33.395044 23.461308-68.268578 23.461308-34.768074 0-53.367975-12.998224-68.268578-23.461308-4.544003-3.169949-8.559681-6.023517-12.681843-8.243301-7.714976-4.227623-12.57536-11.941575-12.57536-20.290335v-1.374054h-0.212968z m766.492841 236.933207a22.403635 22.403635 0 0 1-21.76985 16.908442H186.721871c-10.25114 0-19.233686-6.974707-21.76985-16.908442l-42.58851-168.664629c15.323468 8.243301 35.719263 15.428928 64.2529 15.428928 44.279969 0 69.114307-17.436767 85.494425-28.956501 10.779465-7.608492 13.104708-9.19449 23.038443-9.194491s12.258979 1.584974 23.038444 9.194491c16.380117 11.51871 41.21548 28.956501 85.494425 28.956501s69.114307-17.436767 85.494424-28.956501c10.779465-7.608492 13.104708-9.19449 23.038444-9.194491 9.933735 0 12.258979 1.584974 23.038444 9.194491 16.380117 11.51871 41.214456 28.956501 85.494424 28.956501s69.114307-17.436767 85.494425-28.956501c10.779465-7.608492 13.104708-9.19449 23.038444-9.194491 9.933735 0 12.258979 1.584974 23.038443 9.194491 16.380117 11.51871 41.21548 28.956501 85.494425 28.956501 28.533636 0 49.034892-7.186651 64.35836-15.428928l-42.48305 168.664629z" fill="#333333" /><path d="M512.320476 367.535924c8.243301 0 15.006063-6.763786 15.006063-15.006063v-33.395044c0-8.243301-6.763786-15.006063-15.006063-15.006063-8.243301 0-15.006063 6.763786-15.006063 15.006063v33.395044c0 8.348761 6.762763 15.006063 15.006063 15.006063zM597.075656 351.684131l28.639096 11.941575c1.902379 0.740269 3.804758 1.16211 5.812597 1.16211 5.918057 0 11.41325-3.487353 13.843953-9.19449 3.169949-7.608492-0.422865-16.380117-8.031356-19.656551l-28.639096-11.941574c-7.608492-3.169949-16.380117 0.422865-19.656551 8.031356-3.170973 7.61054 0.421841 16.382165 8.031357 19.657574zM393.220087 364.682356c1.902379 0 3.910218-0.422865 5.812597-1.16211l28.639097-11.941575c7.608492-3.169949 11.30779-11.941575 8.031356-19.65655-3.169949-7.608492-11.941575-11.30779-19.65655-8.031357l-28.639097 11.941575c-7.608492 3.169949-11.30779 11.941575-8.031356 19.65655 2.32422 5.706113 7.925896 9.193466 13.843953 9.193467z" fill="#333333" /></svg>