<?xml version="1.0" encoding="utf-8"?>
<!-- Generator: Adobe Illustrator 22.0.0, SVG Export Plug-In . SVG Version: 6.00 Build 0)  -->
<svg version="1.1" id="Calque_1" xmlns="http://www.w3.org/2000/svg" xmlns:xlink="http://www.w3.org/1999/xlink" x="0px" y="0px"
	 viewBox="0 0 256 256" style="enable-background:new 0 0 256 256;" xml:space="preserve">
<style type="text/css">
	.st0{fill:#47BF58;}
	.st1{fill:#FFFFFF;}
	.st2{fill:#EF3D25;stroke:#DD1F26;stroke-width:14;stroke-miterlimit:10;}
	.st3{fill:#ED1C24;stroke:#DD1F26;stroke-width:0.25;stroke-miterlimit:10;}
</style>
<desc>Created with Fabric.js 1.7.22</desc>
<g transform="translate(128 128) scale(0.72 0.72)">
	<g transform="translate(-175.05 -175.05000000000004) scale(3.89 3.89)">
		<path class="st0" d="M68.2,10.4H21.8c-5.4,0-9.7,4.4-9.7,9.7v3.1h65.8v-3.1C77.9,14.8,73.5,10.4,68.2,10.4z"/>
		<path class="st0" d="M57.6,14.5H32.4c-1.1,0-2-0.9-2-2C30.4,5.6,36,0,42.8,0h4.3C54,0,59.6,5.6,59.6,12.5
			C59.6,13.6,58.7,14.5,57.6,14.5z M34.6,10.5h20.8C54.5,6.8,51.1,4,47.2,4h-4.3C38.9,4,35.5,6.8,34.6,10.5z"/>
		<path class="st0" d="M16.2,27.3l3.6,60.7c0.1,1.1,1,1.9,2.1,1.9h46.4c1.1,0,2-0.9,2.1-1.9l3.6-60.7L16.2,27.3L16.2,27.3z"/>
		<path class="st1" d="M32.9,81.1c0,0-0.1,0-0.1,0c-1.1,0-1.9-0.8-2-1.9l-2.3-38.9c-0.1-1.1,0.8-2,1.9-2.1c1.1-0.1,2,0.8,2.1,1.9
			L34.7,79C34.8,80.1,34,81,32.9,81.1z"/>
		<path class="st1" d="M47,79.1c0,1.1-0.9,2-2,2s-2-0.9-2-2V40.3c0-1.1,0.9-2,2-2s2,0.9,2,2V79.1z"/>
		<path class="st1" d="M59.2,79.2c-0.1,1.1-0.9,1.9-2,1.9c0,0-0.1,0-0.1,0c-1.1-0.1-1.9-1-1.9-2.1l2.3-38.9c0.1-1.1,1-1.9,2.1-1.9
			c1.1,0.1,1.9,1,1.9,2.1L59.2,79.2z"/>
	</g>
</g>
<line class="st2" x1="-132.4" y1="16.6" x2="-131.7" y2="16.6"/>
<path class="st3" d="M231.6,246.4l7-6.8c2.1-2,2.1-5.4,0.1-7.5L32.3,22.2c-2-2.1-5.4-2.1-7.5-0.1l-7,6.8c-2.1,2-2.1,5.4-0.1,7.5
	l206.3,209.9C226.1,248.4,229.5,248.5,231.6,246.4z"/>
<path class="st3" d="M15.6,239.5l6.9,6.9c2.1,2.1,5.5,2.1,7.6,0L239.7,36.7c2.1-2.1,2.1-5.5,0-7.6l-6.9-6.9c-2.1-2.1-5.5-2.1-7.6,0
	L15.6,231.9C13.5,234,13.5,237.4,15.6,239.5z"/>
</svg>
